<svg version="1.1" viewBox="0.0 0.0 960.0 540.0" fill="none" stroke="none" stroke-linecap="square" stroke-miterlimit="10" xmlns:xlink="http://www.w3.org/1999/xlink" xmlns="http://www.w3.org/2000/svg"><clipPath id="g2585c0afa20_0_1947.0"><path d="m0 0l960.0 0l0 540.0l-960.0 0l0 -540.0z" clip-rule="nonzero"/></clipPath><g clip-path="url(#g2585c0afa20_0_1947.0)"><path fill="#ffffff" d="m0 0l960.0 0l0 540.0l-960.0 0z" fill-rule="evenodd"/><path fill="#000000" fill-opacity="0.0" d="m32.72441 46.721786l894.55115 0l0 60.125984l-894.55115 0z" fill-rule="evenodd"/><path fill="#000000" d="m48.81816 87.97778l-6.515625 -24.046875l3.15625 0l4.359375 17.671875l0.40625 1.640625l0.140625 0l0.5 -1.640625l5.375 -17.671875l2.953125 0l5.140625 17.671875l0.5 1.640625l0.140625 0l0.40625 -1.640625l4.328125 -17.671875l3.15625 0l-6.484375 24.046875l-2.953125 0l-5.109375 -17.40625l-0.53125 -1.875l-0.140625 0l-0.5625 1.875l-5.3125 17.40625l-2.953125 0zm26.696793 0l0 -24.046875l2.859375 0l0 7.078125l-0.140625 2.359375l0.140625 0q0.671875 -1.28125 2.203125 -2.171875q1.53125 -0.890625 3.375 -0.890625q2.1875 0 3.59375 0.875q1.40625 0.875 2.109375 2.375q0.71875 1.484375 0.71875 3.4375l0 10.984375l-2.859375 0l0 -10.546875q0 -1.640625 -0.59375 -2.625q-0.578125 -1.0 -1.546875 -1.453125q-0.953125 -0.453125 -2.09375 -0.453125q-1.40625 0 -2.515625 0.8125q-1.109375 0.796875 -1.75 2.078125q-0.640625 1.265625 -0.640625 2.640625l0 9.546875l-2.859375 0zm24.426514 0.53125q-1.921875 0 -3.359375 -0.734375q-1.4375 -0.734375 -2.265625 -2.03125q-0.828125 -1.296875 -0.828125 -2.9375q0 -1.875 0.96875 -3.171875q0.984375 -1.296875 2.625 -1.953125q1.65625 -0.65625 3.625 -0.65625q1.15625 0 2.125 0.1875q0.96875 0.1875 1.6875 0.4375q0.734375 0.25 1.09375 0.484375l0 -1.046875q0 -1.9375 -1.375 -3.078125q-1.375 -1.140625 -3.359375 -1.140625q-1.40625 0 -2.640625 0.625q-1.21875 0.609375 -1.921875 1.71875l-2.15625 -1.609375q0.671875 -1.015625 1.671875 -1.75q1.015625 -0.734375 2.3125 -1.140625q1.296875 -0.40625 2.734375 -0.40625q3.5 0 5.484375 1.859375q1.984375 1.84375 1.984375 4.96875l0 10.84375l-2.734375 0l0 -2.453125l-0.125 0q-0.4375 0.734375 -1.25 1.4375q-0.796875 0.6875 -1.890625 1.109375q-1.09375 0.4375 -2.40625 0.4375zm0.265625 -2.515625q1.484375 0 2.703125 -0.734375q1.234375 -0.734375 1.96875 -1.984375q0.734375 -1.25 0.734375 -2.71875q-0.765625 -0.546875 -1.921875 -0.875q-1.15625 -0.34375 -2.546875 -0.34375q-2.453125 0 -3.59375 1.015625q-1.140625 1.0 -1.140625 2.484375q0 1.40625 1.078125 2.28125q1.078125 0.875 2.71875 0.875zm10.2873535 -12.5625l0 -2.578125l3.1875 0l0 2.578125l-3.1875 0zm7.78125 14.8125q-2.140625 0 -3.453125 -1.28125q-1.3125 -1.296875 -1.3125 -3.484375l0 -17.46875l2.859375 0l0 16.765625q0 1.4375 0.578125 2.125q0.59375 0.6875 1.765625 0.6875q0.546875 0 1.015625 -0.140625q0.46875 -0.15625 0.90625 -0.421875l0 2.78125q-0.546875 0.203125 -1.125 0.3125q-0.5625 0.125 -1.234375 0.125zm-2.078125 -14.8125l0 -2.578125l4.375 0l0 2.578125l-4.375 0zm15.55307 14.546875l0 -17.125l2.859375 0l0 17.125l-2.859375 0zm1.421875 -20.296875q-0.84375 0 -1.453125 -0.59375q-0.609375 -0.609375 -0.609375 -1.453125q0 -0.875 0.609375 -1.453125q0.609375 -0.59375 1.453125 -0.59375q0.859375 0 1.453125 0.59375q0.59375 0.578125 0.59375 1.453125q0 0.84375 -0.59375 1.453125q-0.59375 0.59375 -1.453125 0.59375zm11.583572 20.828125q-1.921875 0 -3.390625 -0.609375q-1.453125 -0.625 -2.40625 -1.6875q-0.953125 -1.0625 -1.421875 -2.296875l2.546875 -1.140625q0.671875 1.546875 1.953125 2.390625q1.28125 0.828125 2.921875 0.828125q1.578125 0 2.625 -0.640625q1.0625 -0.640625 1.0625 -1.875q0 -0.78125 -0.4375 -1.296875q-0.4375 -0.515625 -1.28125 -0.875q-0.828125 -0.375 -2.03125 -0.6875l-2.09375 -0.53125q-1.203125 -0.34375 -2.28125 -0.9375q-1.078125 -0.609375 -1.734375 -1.5625q-0.65625 -0.96875 -0.65625 -2.34375q0 -1.546875 0.90625 -2.65625q0.921875 -1.109375 2.390625 -1.6875q1.484375 -0.59375 3.15625 -0.59375q1.484375 0 2.765625 0.421875q1.296875 0.421875 2.265625 1.25q0.984375 0.8125 1.484375 2.03125l-2.484375 1.140625q-0.640625 -1.28125 -1.71875 -1.78125q-1.0625 -0.5 -2.375 -0.5q-1.40625 0 -2.453125 0.625q-1.046875 0.609375 -1.046875 1.6875q0 1.078125 0.859375 1.609375q0.859375 0.53125 2.109375 0.875l2.484375 0.640625q2.515625 0.640625 3.78125 1.90625q1.28125 1.25 1.28125 3.0625q0 1.609375 -0.90625 2.796875q-0.90625 1.171875 -2.453125 1.8125q-1.546875 0.625 -3.421875 0.625zm23.178848 0q-1.921875 0 -3.359375 -0.734375q-1.4375 -0.734375 -2.265625 -2.03125q-0.828125 -1.296875 -0.828125 -2.9375q0 -1.875 0.96875 -3.171875q0.984375 -1.296875 2.625 -1.953125q1.65625 -0.65625 3.625 -0.65625q1.15625 0 2.125 0.1875q0.96875 0.1875 1.6875 0.4375q0.734375 0.25 1.09375 0.484375l0 -1.046875q0 -1.9375 -1.375 -3.078125q-1.375 -1.140625 -3.359375 -1.140625q-1.40625 0 -2.640625 0.625q-1.21875 0.609375 -1.921875 1.71875l-2.15625 -1.609375q0.671875 -1.015625 1.671875 -1.75q1.015625 -0.734375 2.3125 -1.140625q1.296875 -0.40625 2.734375 -0.40625q3.5 0 5.484375 1.859375q1.984375 1.84375 1.984375 4.96875l0 10.84375l-2.734375 0l0 -2.453125l-0.125 0q-0.4375 0.734375 -1.25 1.4375q-0.796875 0.6875 -1.890625 1.109375q-1.09375 0.4375 -2.40625 0.4375zm0.265625 -2.515625q1.484375 0 2.703125 -0.734375q1.234375 -0.734375 1.96875 -1.984375q0.734375 -1.25 0.734375 -2.71875q-0.765625 -0.546875 -1.921875 -0.875q-1.15625 -0.34375 -2.546875 -0.34375q-2.453125 0 -3.59375 1.015625q-1.140625 1.0 -1.140625 2.484375q0 1.40625 1.078125 2.28125q1.078125 0.875 2.71875 0.875zm19.819458 1.984375l0 -24.046875l2.859375 0l0 24.046875l-2.859375 0zm12.567947 0.53125q-1.921875 0 -3.359375 -0.734375q-1.4375 -0.734375 -2.265625 -2.03125q-0.828125 -1.296875 -0.828125 -2.9375q0 -1.875 0.96875 -3.171875q0.984375 -1.296875 2.625 -1.953125q1.65625 -0.65625 3.625 -0.65625q1.15625 0 2.125 0.1875q0.96875 0.1875 1.6875 0.4375q0.734375 0.25 1.09375 0.484375l0 -1.046875q0 -1.9375 -1.375 -3.078125q-1.375 -1.140625 -3.359375 -1.140625q-1.40625 0 -2.640625 0.625q-1.21875 0.609375 -1.921875 1.71875l-2.15625 -1.609375q0.671875 -1.015625 1.671875 -1.75q1.015625 -0.734375 2.3125 -1.140625q1.296875 -0.40625 2.734375 -0.40625q3.5 0 5.484375 1.859375q1.984375 1.84375 1.984375 4.96875l0 10.84375l-2.734375 0l0 -2.453125l-0.125 0q-0.4375 0.734375 -1.25 1.4375q-0.796875 0.6875 -1.890625 1.109375q-1.09375 0.4375 -2.40625 0.4375zm0.265625 -2.515625q1.484375 0 2.703125 -0.734375q1.234375 -0.734375 1.96875 -1.984375q0.734375 -1.25 0.734375 -2.71875q-0.765625 -0.546875 -1.921875 -0.875q-1.15625 -0.34375 -2.546875 -0.34375q-2.453125 0 -3.59375 1.015625q-1.140625 1.0 -1.140625 2.484375q0 1.40625 1.078125 2.28125q1.078125 0.875 2.71875 0.875zm12.025726 1.984375l0 -17.125l2.71875 0l0 2.515625l0.140625 0q0.671875 -1.25 2.203125 -2.15625q1.53125 -0.90625 3.34375 -0.90625q3.15625 0 4.75 1.828125q1.59375 1.828125 1.59375 4.859375l0 10.984375l-2.859375 0l0 -10.546875q0 -2.484375 -1.1875 -3.5q-1.1875 -1.03125 -3.078125 -1.03125q-1.40625 0 -2.484375 0.796875q-1.078125 0.78125 -1.6875 2.03125q-0.59375 1.234375 -0.59375 2.609375l0 9.640625l-2.859375 0zm26.310104 7.796875q-2.1875 0 -3.75 -0.734375q-1.5625 -0.71875 -2.515625 -1.828125q-0.953125 -1.109375 -1.359375 -2.25l2.625 -1.109375q0.53125 1.421875 1.8125 2.375q1.296875 0.953125 3.1875 0.953125q2.6875 0 4.125 -1.5625q1.453125 -1.5625 1.453125 -4.34375l0 -1.921875l-0.140625 0q-0.796875 1.25 -2.3125 2.109375q-1.515625 0.84375 -3.53125 0.84375q-2.21875 0 -4.046875 -1.140625q-1.828125 -1.140625 -2.90625 -3.171875q-1.078125 -2.03125 -1.078125 -4.6875q0 -2.65625 1.078125 -4.6875q1.078125 -2.03125 2.90625 -3.171875q1.828125 -1.140625 4.046875 -1.140625q2.015625 0 3.53125 0.859375q1.515625 0.859375 2.3125 2.125l0.140625 0l0 -2.4375l2.71875 0l0 16.453125q0 2.859375 -1.09375 4.734375q-1.09375 1.890625 -2.953125 2.8125q-1.859375 0.921875 -4.25 0.921875zm0 -10.046875q1.515625 0 2.78125 -0.75q1.28125 -0.765625 2.03125 -2.203125q0.765625 -1.453125 0.765625 -3.46875q0 -2.078125 -0.765625 -3.5q-0.75 -1.4375 -2.03125 -2.171875q-1.265625 -0.734375 -2.78125 -0.734375q-1.515625 0 -2.796875 0.75q-1.265625 0.75 -2.046875 2.1875q-0.765625 1.421875 -0.765625 3.46875q0 2.046875 0.765625 3.484375q0.78125 1.421875 2.046875 2.1875q1.28125 0.75 2.796875 0.75zm18.67572 2.78125q-3.15625 0 -4.75 -1.84375q-1.59375 -1.84375 -1.59375 -5.03125l0 -10.78125l2.84375 0l0 10.34375q0 2.546875 1.171875 3.640625q1.1875 1.09375 2.9375 1.09375q1.5 0 2.609375 -0.78125q1.109375 -0.796875 1.71875 -2.03125q0.609375 -1.25 0.609375 -2.59375l0 -9.671875l2.859375 0l0 17.125l-2.734375 0l0 -2.484375l-0.125 0q-0.4375 0.8125 -1.296875 1.5q-0.859375 0.6875 -1.953125 1.09375q-1.09375 0.421875 -2.296875 0.421875zm18.106964 0q-1.921875 0 -3.359375 -0.734375q-1.4375 -0.734375 -2.265625 -2.03125q-0.828125 -1.296875 -0.828125 -2.9375q0 -1.875 0.96875 -3.171875q0.984375 -1.296875 2.625 -1.953125q1.65625 -0.65625 3.625 -0.65625q1.15625 0 2.125 0.1875q0.96875 0.1875 1.6875 0.4375q0.734375 0.25 1.09375 0.484375l0 -1.046875q0 -1.9375 -1.375 -3.078125q-1.375 -1.140625 -3.359375 -1.140625q-1.40625 0 -2.640625 0.625q-1.21875 0.609375 -1.921875 1.71875l-2.15625 -1.609375q0.671875 -1.015625 1.671875 -1.75q1.015625 -0.734375 2.3125 -1.140625q1.296875 -0.40625 2.734375 -0.40625q3.5 0 5.484375 1.859375q1.984375 1.84375 1.984375 4.96875l0 10.84375l-2.734375 0l0 -2.453125l-0.125 0q-0.4375 0.734375 -1.25 1.4375q-0.796875 0.6875 -1.890625 1.109375q-1.09375 0.4375 -2.40625 0.4375zm0.265625 -2.515625q1.484375 0 2.703125 -0.734375q1.234375 -0.734375 1.96875 -1.984375q0.734375 -1.25 0.734375 -2.71875q-0.765625 -0.546875 -1.921875 -0.875q-1.15625 -0.34375 -2.546875 -0.34375q-2.453125 0 -3.59375 1.015625q-1.140625 1.0 -1.140625 2.484375q0 1.40625 1.078125 2.28125q1.078125 0.875 2.71875 0.875zm19.556976 9.78125q-2.1875 0 -3.75 -0.734375q-1.5625 -0.71875 -2.515625 -1.828125q-0.953125 -1.109375 -1.359375 -2.25l2.625 -1.109375q0.53125 1.421875 1.8125 2.375q1.296875 0.953125 3.1875 0.953125q2.6875 0 4.125 -1.5625q1.453125 -1.5625 1.453125 -4.34375l0 -1.921875l-0.140625 0q-0.796875 1.25 -2.3125 2.109375q-1.515625 0.84375 -3.53125 0.84375q-2.21875 0 -4.046875 -1.140625q-1.828125 -1.140625 -2.90625 -3.171875q-1.078125 -2.03125 -1.078125 -4.6875q0 -2.65625 1.078125 -4.6875q1.078125 -2.03125 2.90625 -3.171875q1.828125 -1.140625 4.046875 -1.140625q2.015625 0 3.53125 0.859375q1.515625 0.859375 2.3125 2.125l0.140625 0l0 -2.4375l2.71875 0l0 16.453125q0 2.859375 -1.09375 4.734375q-1.09375 1.890625 -2.953125 2.8125q-1.859375 0.921875 -4.25 0.921875zm0 -10.046875q1.515625 0 2.78125 -0.75q1.28125 -0.765625 2.03125 -2.203125q0.765625 -1.453125 0.765625 -3.46875q0 -2.078125 -0.765625 -3.5q-0.75 -1.4375 -2.03125 -2.171875q-1.265625 -0.734375 -2.78125 -0.734375q-1.515625 0 -2.796875 0.75q-1.265625 0.75 -2.046875 2.1875q-0.765625 1.421875 -0.765625 3.46875q0 2.046875 0.765625 3.484375q0.78125 1.421875 2.046875 2.1875q1.28125 0.75 2.796875 0.75zm20.08197 2.78125q-2.484375 0 -4.421875 -1.171875q-1.921875 -1.171875 -3.015625 -3.21875q-1.09375 -2.046875 -1.09375 -4.671875q0 -2.453125 1.015625 -4.53125q1.03125 -2.09375 2.890625 -3.34375q1.875 -1.265625 4.390625 -1.265625q2.5625 0 4.390625 1.125q1.828125 1.125 2.8125 3.109375q1.0 1.984375 1.0 4.53125q0 0.234375 -0.015625 0.46875q-0.015625 0.234375 -0.046875 0.40625l-14.75 0l0 -2.34375l11.78125 0q-0.03125 -0.703125 -0.3125 -1.53125q-0.28125 -0.828125 -0.90625 -1.546875q-0.625 -0.71875 -1.578125 -1.171875q-0.953125 -0.453125 -2.375 -0.453125q-1.671875 0 -2.90625 0.859375q-1.21875 0.84375 -1.875 2.328125q-0.65625 1.484375 -0.65625 3.359375q0 2.1875 0.828125 3.640625q0.84375 1.4375 2.171875 2.140625q1.328125 0.703125 2.78125 0.703125q1.875 0 3.09375 -0.890625q1.234375 -0.890625 1.96875 -2.203125l2.421875 1.171875q-1.0 1.953125 -2.890625 3.234375q-1.875 1.265625 -4.703125 1.265625zm19.01477 -0.53125l0 -17.125l2.71875 0l0 2.515625l0.140625 0q0.46875 -0.84375 1.28125 -1.53125q0.828125 -0.6875 1.890625 -1.109375q1.0625 -0.421875 2.171875 -0.421875q1.90625 0 3.28125 0.921875q1.390625 0.921875 1.984375 2.40625q0.875 -1.4375 2.359375 -2.375q1.484375 -0.953125 3.53125 -0.953125q3.046875 0 4.484375 1.859375q1.453125 1.84375 1.453125 4.828125l0 10.984375l-2.8125 0l0 -10.546875q0 -2.484375 -1.015625 -3.5q-1.0 -1.03125 -2.859375 -1.03125q-1.296875 0 -2.328125 0.75q-1.03125 0.75 -1.625 1.984375q-0.578125 1.21875 -0.578125 2.671875l0 9.671875l-2.859375 0l0 -10.515625q0 -2.484375 -1.015625 -3.515625q-1.0 -1.046875 -2.8125 -1.046875q-1.3125 0 -2.34375 0.78125q-1.015625 0.765625 -1.609375 2.015625q-0.578125 1.234375 -0.578125 2.671875l0 9.609375l-2.859375 0zm37.23352 0.53125q-2.59375 0 -4.578125 -1.203125q-1.984375 -1.203125 -3.109375 -3.265625q-1.125 -2.078125 -1.125 -4.625q0 -2.5625 1.125 -4.625q1.125 -2.0625 3.109375 -3.265625q1.984375 -1.21875 4.578125 -1.21875q2.578125 0 4.5625 1.234375q1.984375 1.21875 3.109375 3.296875q1.125 2.0625 1.125 4.578125q0 2.546875 -1.125 4.625q-1.125 2.0625 -3.109375 3.265625q-1.984375 1.203125 -4.5625 1.203125zm0 -2.578125q1.53125 0 2.890625 -0.765625q1.375 -0.78125 2.203125 -2.234375q0.84375 -1.46875 0.84375 -3.515625q0 -2.046875 -0.84375 -3.5q-0.828125 -1.46875 -2.203125 -2.234375q-1.359375 -0.78125 -2.890625 -0.78125q-1.546875 0 -2.9375 0.78125q-1.375 0.765625 -2.21875 2.234375q-0.828125 1.453125 -0.828125 3.5q0 2.046875 0.828125 3.515625q0.84375 1.453125 2.21875 2.234375q1.390625 0.765625 2.9375 0.765625zm19.345276 2.578125q-2.328125 0 -4.1875 -1.171875q-1.859375 -1.171875 -2.9375 -3.21875q-1.078125 -2.046875 -1.078125 -4.703125q0 -2.65625 1.078125 -4.703125q1.078125 -2.046875 2.9375 -3.21875q1.859375 -1.1875 4.1875 -1.1875q1.375 0 2.515625 0.4375q1.140625 0.4375 2.0 1.140625q0.859375 0.703125 1.328125 1.515625l0.140625 0l-0.140625 -2.390625l0 -7.078125l2.859375 0l0 24.046875l-2.71875 0l0 -2.515625l-0.140625 0q-0.46875 0.765625 -1.328125 1.484375q-0.859375 0.703125 -2.0 1.125q-1.140625 0.4375 -2.515625 0.4375zm0.296875 -2.578125q1.484375 0 2.765625 -0.78125q1.296875 -0.796875 2.109375 -2.25q0.8125 -1.46875 0.8125 -3.484375q0 -2.015625 -0.8125 -3.46875q-0.8125 -1.46875 -2.109375 -2.25q-1.28125 -0.796875 -2.765625 -0.796875q-1.46875 0 -2.765625 0.796875q-1.296875 0.78125 -2.109375 2.25q-0.796875 1.453125 -0.796875 3.46875q0 1.984375 0.796875 3.46875q0.8125 1.46875 2.109375 2.265625q1.296875 0.78125 2.765625 0.78125zm20.187439 2.578125q-2.484375 0 -4.421875 -1.171875q-1.921875 -1.171875 -3.015625 -3.21875q-1.09375 -2.046875 -1.09375 -4.671875q0 -2.453125 1.015625 -4.53125q1.03125 -2.09375 2.890625 -3.34375q1.875 -1.265625 4.390625 -1.265625q2.5625 0 4.390625 1.125q1.828125 1.125 2.8125 3.109375q1.0 1.984375 1.0 4.53125q0 0.234375 -0.015625 0.46875q-0.015625 0.234375 -0.046875 0.40625l-14.75 0l0 -2.34375l11.78125 0q-0.03125 -0.703125 -0.3125 -1.53125q-0.28125 -0.828125 -0.90625 -1.546875q-0.625 -0.71875 -1.578125 -1.171875q-0.953125 -0.453125 -2.375 -0.453125q-1.671875 0 -2.90625 0.859375q-1.21875 0.84375 -1.875 2.328125q-0.65625 1.484375 -0.65625 3.359375q0 2.1875 0.828125 3.640625q0.84375 1.4375 2.171875 2.140625q1.328125 0.703125 2.78125 0.703125q1.875 0 3.09375 -0.890625q1.234375 -0.890625 1.96875 -2.203125l2.421875 1.171875q-1.0 1.953125 -2.890625 3.234375q-1.875 1.265625 -4.703125 1.265625zm11.221039 -0.53125l0 -24.046875l2.859375 0l0 24.046875l-2.859375 0zm11.599213 -7.09375l0 -1.609375q0 -1.171875 0.28125 -2.03125q0.28125 -0.859375 0.9375 -1.640625q0.65625 -0.796875 1.703125 -1.765625q0.734375 -0.671875 1.296875 -1.28125q0.578125 -0.609375 0.890625 -1.296875q0.328125 -0.6875 0.328125 -1.5625q0 -1.578125 -1.03125 -2.578125q-1.015625 -1.015625 -2.90625 -1.015625q-1.203125 0 -2.046875 0.515625q-0.828125 0.5 -1.34375 1.28125q-0.5 0.765625 -0.765625 1.53125l-2.625 -1.109375q0.375 -1.03125 1.203125 -2.171875q0.84375 -1.15625 2.21875 -1.953125q1.390625 -0.8125 3.359375 -0.8125q2.0625 0 3.578125 0.828125q1.53125 0.828125 2.390625 2.25q0.859375 1.421875 0.859375 3.234375q0 1.421875 -0.59375 2.53125q-0.578125 1.109375 -1.359375 1.90625q-0.765625 0.78125 -1.34375 1.3125q-0.703125 0.640625 -1.171875 1.25q-0.46875 0.59375 -0.703125 1.265625q-0.234375 0.671875 -0.234375 1.515625l0 1.40625l-2.921875 0zm1.46875 7.296875q-0.90625 0 -1.53125 -0.625q-0.609375 -0.625 -0.609375 -1.53125q0 -0.875 0.609375 -1.484375q0.625 -0.625 1.53125 -0.625q0.875 0 1.5 0.625q0.625 0.609375 0.625 1.484375q0 0.90625 -0.625 1.53125q-0.625 0.625 -1.5 0.625z" fill-rule="nonzero"/><path fill="#457fb5" fill-opacity="0.3184" d="m144.29659 306.93176l394.99213 0l0 80.81891l-394.99213 0z" fill-rule="evenodd"/><path stroke="#000000" stroke-width="3.0" stroke-linejoin="round" stroke-linecap="butt" d="m144.29659 306.93176l394.99213 0l0 80.81891l-394.99213 0z" fill-rule="evenodd"/><path fill="#f4cccc" d="m163.57764 410.09973l38.44597 0l5.9423676 5.942383l0 29.711182l0 0l-50.330704 0l0 0l0 -29.711182z" fill-rule="evenodd"/><path stroke="#000000" stroke-width="1.0" stroke-linejoin="round" stroke-linecap="butt" d="m163.57764 410.09973l38.44597 0l5.9423676 5.942383l0 29.711182l0 0l-50.330704 0l0 0l0 -29.711182z" fill-rule="evenodd"/><path fill="#000000" d="m176.11775 435.2771l0 -9.75l2.0625 0l0 0.765625l-1.125 0l0 8.203125l1.125 0l0 0.78125l-2.0625 0zm3.2106476 -2.125l0 -1.0625l1.0625 0l0 1.0625l-1.0625 0zm2.9606476 0l0 -1.0625l1.0625 0l0 1.0625l-1.0625 0zm2.9606476 0l0 -1.0625l1.0625 0l0 1.0625l-1.0625 0zm4.2575226 2.125l-2.0625 0l0 -0.78125l1.125 0l0 -8.203125l-1.125 0l0 -0.765625l2.0625 0l0 9.75z" fill-rule="nonzero"/><path fill="#f4cccc" d="m227.57764 410.09973l38.445953 0l5.942383 5.942383l0 29.711182l0 0l-50.330704 0l0 0l0 -29.711182z" fill-rule="evenodd"/><path stroke="#000000" stroke-width="1.0" stroke-linejoin="round" stroke-linecap="butt" d="m227.57764 410.09973l38.445953 0l5.942383 5.942383l0 29.711182l0 0l-50.330704 0l0 0l0 -29.711182z" fill-rule="evenodd"/><path fill="#000000" d="m240.11775 435.2771l0 -9.75l2.0625 0l0 0.765625l-1.125 0l0 8.203125l1.125 0l0 0.78125l-2.0625 0zm3.2106476 -2.125l0 -1.0625l1.0625 0l0 1.0625l-1.0625 0zm2.9606476 0l0 -1.0625l1.0625 0l0 1.0625l-1.0625 0zm2.9606476 0l0 -1.0625l1.0625 0l0 1.0625l-1.0625 0zm4.2575226 2.125l-2.0625 0l0 -0.78125l1.125 0l0 -8.203125l-1.125 0l0 -0.765625l2.0625 0l0 9.75z" fill-rule="nonzero"/><path fill="#f4cccc" d="m362.69214 410.09973l38.445953 0l5.942383 5.942383l0 29.711182l0 0l-50.33072 0l0 0l0 -29.711182z" fill-rule="evenodd"/><path stroke="#000000" stroke-width="1.0" stroke-linejoin="round" stroke-linecap="butt" d="m362.69214 410.09973l38.445953 0l5.942383 5.942383l0 29.711182l0 0l-50.33072 0l0 0l0 -29.711182z" fill-rule="evenodd"/><path fill="#000000" d="m375.23227 428.7771l0 -9.75l2.0625 0l0 0.765625l-1.125 0l0 8.203125l1.125 0l0 0.78125l-2.0625 0zm3.2106323 -2.125l0 -1.0625l1.0625 0l0 1.0625l-1.0625 0zm2.9606628 0l0 -1.0625l1.0625 0l0 1.0625l-1.0625 0zm2.9606323 0l0 -1.0625l1.0625 0l0 1.0625l-1.0625 0zm4.257538 2.125l-2.0625 0l0 -0.78125l1.125 0l0 -8.203125l-1.125 0l0 -0.765625l2.0625 0l0 9.75z" fill-rule="nonzero"/><path fill="#d9d9d9" d="m167.76125 386.77692l15.039368 -10.48819l15.039383 10.48819l-7.519684 0l0 10.48819l-15.039383 0l0 -10.48819z" fill-rule="evenodd"/><path stroke="#000000" stroke-width="1.0" stroke-linejoin="round" stroke-linecap="butt" d="m167.76125 386.77692l15.039368 -10.48819l15.039383 10.48819l-7.519684 0l0 10.48819l-15.039383 0l0 -10.48819z" fill-rule="evenodd"/><path fill="#d9d9d9" d="m232.5748 386.77692l15.039368 -10.48819l15.039368 10.48819l-7.5196686 0l0 10.48819l-15.039383 0l0 -10.48819z" fill-rule="evenodd"/><path stroke="#000000" stroke-width="1.0" stroke-linejoin="round" stroke-linecap="butt" d="m232.5748 386.77692l15.039368 -10.48819l15.039368 10.48819l-7.5196686 0l0 10.48819l-15.039383 0l0 -10.48819z" fill-rule="evenodd"/><path fill="#d9d9d9" d="m366.87576 386.77692l15.039368 -10.48819l15.039368 10.48819l-7.519684 0l0 10.48819l-15.039368 0l0 -10.48819z" fill-rule="evenodd"/><path stroke="#000000" stroke-width="1.0" stroke-linejoin="round" stroke-linecap="butt" d="m366.87576 386.77692l15.039368 -10.48819l15.039368 10.48819l-7.519684 0l0 10.48819l-15.039368 0l0 -10.48819z" fill-rule="evenodd"/><path fill="#000000" fill-opacity="0.0" d="m157.63516 471.97375l50.33072 0l0 35.653534l-50.33072 0z" fill-rule="evenodd"/><path stroke="#000000" stroke-width="1.0" stroke-linejoin="round" stroke-linecap="butt" d="m157.63516 471.97375l50.33072 0l0 35.653534l-50.33072 0z" fill-rule="evenodd"/><path fill="#000000" d="m173.17162 496.33374l0 -10.109375l-3.78125 0l0 -1.34375l9.078125 0l0 1.34375l-3.78125 0l0 10.109375l-1.515625 0zm6.6796875 0l0 -11.453125l1.40625 0l0 4.109375q0.984375 -1.140625 2.484375 -1.140625q0.921875 0 1.59375 0.359375q0.6875 0.359375 0.96875 1.0q0.296875 0.640625 0.296875 1.859375l0 5.265625l-1.40625 0l0 -5.265625q0 -1.046875 -0.453125 -1.53125q-0.453125 -0.484375 -1.296875 -0.484375q-0.625 0 -1.171875 0.328125q-0.546875 0.328125 -0.78125 0.890625q-0.234375 0.546875 -0.234375 1.515625l0 4.546875l-1.40625 0zm14.5703125 -2.671875l1.453125 0.171875q-0.34375 1.28125 -1.28125 1.984375q-0.921875 0.703125 -2.359375 0.703125q-1.828125 0 -2.890625 -1.125q-1.0625 -1.125 -1.0625 -3.140625q0 -2.09375 1.078125 -3.25q1.078125 -1.15625 2.796875 -1.15625q1.65625 0 2.703125 1.140625q1.0625 1.125 1.0625 3.171875q0 0.125 0 0.375l-6.1875 0q0.078125 1.375 0.765625 2.109375q0.703125 0.71875 1.734375 0.71875q0.78125 0 1.328125 -0.40625q0.546875 -0.40625 0.859375 -1.296875zm-4.609375 -2.28125l4.625 0q-0.09375 -1.046875 -0.53125 -1.5625q-0.671875 -0.8125 -1.734375 -0.8125q-0.96875 0 -1.640625 0.65625q-0.65625 0.640625 -0.71875 1.71875z" fill-rule="nonzero"/><path fill="#000000" fill-opacity="0.0" d="m182.80061 445.7533l0 13.1102295l0.06300354 0l0 13.125977" fill-rule="evenodd"/><path stroke="#000000" stroke-width="1.0" stroke-linejoin="round" stroke-linecap="butt" d="m182.80061 445.7533l0 13.1102295l0.06300354 0l0 13.125977" fill-rule="evenodd"/><path fill="#000000" fill-opacity="0.0" d="m246.80061 445.7533l0 13.1102295l0.06300354 0l0 13.125977" fill-rule="evenodd"/><path stroke="#000000" stroke-width="1.0" stroke-linejoin="round" stroke-linecap="butt" d="m246.80061 445.7533l0 13.1102295l0.06300354 0l0 13.125977" fill-rule="evenodd"/><path fill="#ff0000" d="m489.53226 298.94516l15.039368 -9.800476l15.039337 9.800476l-7.5196533 0l0 14.16803l-15.039368 0l0 -14.16803z" fill-rule="evenodd"/><path stroke="#000000" stroke-width="1.0" stroke-linejoin="round" stroke-linecap="butt" d="m489.53226 298.94516l15.039368 -9.800476l15.039337 9.800476l-7.5196533 0l0 14.16803l-15.039368 0l0 -14.16803z" fill-rule="evenodd"/><path fill="#f4cccc" d="m292.80072 410.09973l38.445953 0l5.942383 5.942383l0 29.711182l0 0l-50.33072 0l0 0l0 -29.711182z" fill-rule="evenodd"/><path stroke="#000000" stroke-width="1.0" stroke-linejoin="round" stroke-linecap="butt" d="m292.80072 410.09973l38.445953 0l5.942383 5.942383l0 29.711182l0 0l-50.33072 0l0 0l0 -29.711182z" fill-rule="evenodd"/><path fill="#000000" d="m305.34082 435.2771l0 -9.75l2.0625 0l0 0.765625l-1.125 0l0 8.203125l1.125 0l0 0.78125l-2.0625 0zm3.2106628 -2.125l0 -1.0625l1.0625 0l0 1.0625l-1.0625 0zm2.9606323 0l0 -1.0625l1.0625 0l0 1.0625l-1.0625 0zm2.9606628 0l0 -1.0625l1.0625 0l0 1.0625l-1.0625 0zm4.2575073 2.125l-2.0625 0l0 -0.78125l1.125 0l0 -8.203125l-1.125 0l0 -0.765625l2.0625 0l0 9.75z" fill-rule="nonzero"/><path fill="#d9d9d9" d="m297.59744 386.77692l15.039368 -10.48819l15.039368 10.48819l-7.519684 0l0 10.48819l-15.039368 0l0 -10.48819z" fill-rule="evenodd"/><path stroke="#000000" stroke-width="1.0" stroke-linejoin="round" stroke-linecap="butt" d="m297.59744 386.77692l15.039368 -10.48819l15.039368 10.48819l-7.519684 0l0 10.48819l-15.039368 0l0 -10.48819z" fill-rule="evenodd"/><path fill="#000000" fill-opacity="0.0" d="m286.85828 471.97375l50.33072 0l0 35.653534l-50.33072 0z" fill-rule="evenodd"/><path stroke="#000000" stroke-width="1.0" stroke-linejoin="round" stroke-linecap="butt" d="m286.85828 471.97375l50.33072 0l0 35.653534l-50.33072 0z" fill-rule="evenodd"/><path fill="#000000" d="m301.85175 493.84937l1.390625 -0.21875q0.109375 0.84375 0.640625 1.296875q0.546875 0.4375 1.5 0.4375q0.96875 0 1.4375 -0.390625q0.46875 -0.40625 0.46875 -0.9375q0 -0.46875 -0.40625 -0.75q-0.296875 -0.1875 -1.4375 -0.46875q-1.546875 -0.390625 -2.15625 -0.671875q-0.59375 -0.296875 -0.90625 -0.796875q-0.296875 -0.5 -0.296875 -1.109375q0 -0.5625 0.25 -1.03125q0.25 -0.46875 0.6875 -0.78125q0.328125 -0.25 0.890625 -0.40625q0.578125 -0.171875 1.21875 -0.171875q0.984375 0 1.71875 0.28125q0.734375 0.28125 1.078125 0.765625q0.359375 0.46875 0.5 1.28125l-1.375 0.1875q-0.09375 -0.640625 -0.546875 -1.0q-0.453125 -0.359375 -1.265625 -0.359375q-0.96875 0 -1.390625 0.328125q-0.40625 0.3125 -0.40625 0.734375q0 0.28125 0.171875 0.5q0.171875 0.21875 0.53125 0.375q0.21875 0.078125 1.25 0.359375q1.484375 0.390625 2.078125 0.65625q0.59375 0.25 0.921875 0.734375q0.34375 0.484375 0.34375 1.203125q0 0.703125 -0.421875 1.328125q-0.40625 0.609375 -1.1875 0.953125q-0.765625 0.34375 -1.734375 0.34375q-1.625 0 -2.46875 -0.671875q-0.84375 -0.671875 -1.078125 -2.0zm13.96875 1.453125q-0.78125 0.671875 -1.5 0.953125q-0.71875 0.265625 -1.546875 0.265625q-1.375 0 -2.109375 -0.671875q-0.734375 -0.671875 -0.734375 -1.703125q0 -0.609375 0.28125 -1.109375q0.28125 -0.515625 0.71875 -0.8125q0.453125 -0.3125 1.015625 -0.46875q0.421875 -0.109375 1.25 -0.203125q1.703125 -0.203125 2.515625 -0.484375q0 -0.296875 0 -0.375q0 -0.859375 -0.390625 -1.203125q-0.546875 -0.484375 -1.609375 -0.484375q-0.984375 0 -1.46875 0.359375q-0.46875 0.34375 -0.6875 1.21875l-1.375 -0.1875q0.1875 -0.875 0.609375 -1.421875q0.4375 -0.546875 1.25 -0.828125q0.8125 -0.296875 1.875 -0.296875q1.0625 0 1.71875 0.25q0.671875 0.25 0.984375 0.625q0.3125 0.375 0.4375 0.953125q0.078125 0.359375 0.078125 1.296875l0 1.875q0 1.96875 0.078125 2.484375q0.09375 0.515625 0.359375 1.0l-1.46875 0q-0.21875 -0.4375 -0.28125 -1.03125zm-0.109375 -3.140625q-0.765625 0.3125 -2.296875 0.53125q-0.875 0.125 -1.234375 0.28125q-0.359375 0.15625 -0.5625 0.46875q-0.1875 0.296875 -0.1875 0.65625q0 0.5625 0.421875 0.9375q0.4375 0.375 1.25 0.375q0.8125 0 1.4375 -0.34375q0.640625 -0.359375 0.9375 -0.984375q0.234375 -0.46875 0.234375 -1.40625l0 -0.515625zm6.6640625 2.90625l0.203125 1.25q-0.59375 0.125 -1.0625 0.125q-0.765625 0 -1.1875 -0.234375q-0.421875 -0.25 -0.59375 -0.640625q-0.171875 -0.40625 -0.171875 -1.671875l0 -4.765625l-1.03125 0l0 -1.09375l1.03125 0l0 -2.0625l1.40625 -0.84375l0 2.90625l1.40625 0l0 1.09375l-1.40625 0l0 4.84375q0 0.609375 0.0625 0.78125q0.078125 0.171875 0.25 0.28125q0.171875 0.09375 0.484375 0.09375q0.234375 0 0.609375 -0.0625z" fill-rule="nonzero"/><path fill="#000000" fill-opacity="0.0" d="m312.0237 445.7533l0 13.1102295l0.06298828 0l0 13.125977" fill-rule="evenodd"/><path stroke="#000000" stroke-width="1.0" stroke-linejoin="round" stroke-linecap="butt" d="m312.0237 445.7533l0 13.1102295l0.06298828 0l0 13.125977" fill-rule="evenodd"/><path fill="#000000" fill-opacity="0.0" d="m221.63527 471.97375l50.330704 0l0 35.653534l-50.330704 0z" fill-rule="evenodd"/><path stroke="#000000" stroke-width="1.0" stroke-linejoin="round" stroke-linecap="butt" d="m221.63527 471.97375l50.330704 0l0 35.653534l-50.330704 0z" fill-rule="evenodd"/><path fill="#000000" d="m242.59749 493.28687l1.390625 0.1875q-0.234375 1.421875 -1.171875 2.234375q-0.921875 0.8125 -2.28125 0.8125q-1.703125 0 -2.75 -1.109375q-1.03125 -1.125 -1.03125 -3.203125q0 -1.34375 0.4375 -2.34375q0.453125 -1.015625 1.359375 -1.515625q0.921875 -0.5 1.984375 -0.5q1.359375 0 2.21875 0.6875q0.859375 0.671875 1.09375 1.9375l-1.359375 0.203125q-0.203125 -0.828125 -0.703125 -1.25q-0.484375 -0.421875 -1.1875 -0.421875q-1.0625 0 -1.734375 0.765625q-0.65625 0.75 -0.65625 2.40625q0 1.671875 0.640625 2.4375q0.640625 0.75 1.671875 0.75q0.828125 0 1.375 -0.5q0.5625 -0.515625 0.703125 -1.578125zm8.0 2.015625q-0.78125 0.671875 -1.5 0.953125q-0.71875 0.265625 -1.546875 0.265625q-1.375 0 -2.109375 -0.671875q-0.734375 -0.671875 -0.734375 -1.703125q0 -0.609375 0.28125 -1.109375q0.28125 -0.515625 0.71875 -0.8125q0.453125 -0.3125 1.015625 -0.46875q0.421875 -0.109375 1.25 -0.203125q1.703125 -0.203125 2.515625 -0.484375q0 -0.296875 0 -0.375q0 -0.859375 -0.390625 -1.203125q-0.546875 -0.484375 -1.609375 -0.484375q-0.984375 0 -1.46875 0.359375q-0.46875 0.34375 -0.6875 1.21875l-1.375 -0.1875q0.1875 -0.875 0.609375 -1.421875q0.4375 -0.546875 1.25 -0.828125q0.8125 -0.296875 1.875 -0.296875q1.0625 0 1.71875 0.25q0.671875 0.25 0.984375 0.625q0.3125 0.375 0.4375 0.953125q0.078125 0.359375 0.078125 1.296875l0 1.875q0 1.96875 0.078125 2.484375q0.09375 0.515625 0.359375 1.0l-1.46875 0q-0.21875 -0.4375 -0.28125 -1.03125zm-0.109375 -3.140625q-0.765625 0.3125 -2.296875 0.53125q-0.875 0.125 -1.234375 0.28125q-0.359375 0.15625 -0.5625 0.46875q-0.1875 0.296875 -0.1875 0.65625q0 0.5625 0.421875 0.9375q0.4375 0.375 1.25 0.375q0.8125 0 1.4375 -0.34375q0.640625 -0.359375 0.9375 -0.984375q0.234375 -0.46875 0.234375 -1.40625l0 -0.515625zm6.6640778 2.90625l0.203125 1.25q-0.59375 0.125 -1.0625 0.125q-0.76564026 0 -1.1875153 -0.234375q-0.421875 -0.25 -0.59375 -0.640625q-0.171875 -0.40625 -0.171875 -1.671875l0 -4.765625l-1.03125 0l0 -1.09375l1.03125 0l0 -2.0625l1.40625 -0.84375l0 2.90625l1.4062653 0l0 1.09375l-1.4062653 0l0 4.84375q0 0.609375 0.0625 0.78125q0.078125 0.171875 0.25001526 0.28125q0.171875 0.09375 0.484375 0.09375q0.234375 0 0.609375 -0.0625z" fill-rule="nonzero"/><path fill="#000000" fill-opacity="0.0" d="m356.7497 472.02625l50.33069 0l0 35.653534l-50.33069 0z" fill-rule="evenodd"/><path stroke="#000000" stroke-width="1.0" stroke-linejoin="round" stroke-linecap="butt" d="m356.7497 472.02625l50.33069 0l0 35.653534l-50.33069 0z" fill-rule="evenodd"/><path fill="#000000" d="m373.54785 492.23q0 -2.296875 1.28125 -3.40625q1.078125 -0.921875 2.609375 -0.921875q1.71875 0 2.796875 1.125q1.09375 1.109375 1.09375 3.09375q0 1.59375 -0.484375 2.515625q-0.484375 0.921875 -1.40625 1.4375q-0.90625 0.5 -2.0 0.5q-1.734375 0 -2.8125 -1.109375q-1.078125 -1.125 -1.078125 -3.234375zm1.453125 0q0 1.59375 0.6875 2.390625q0.703125 0.796875 1.75 0.796875q1.046875 0 1.734375 -0.796875q0.703125 -0.796875 0.703125 -2.4375q0 -1.53125 -0.703125 -2.328125q-0.6875 -0.796875 -1.734375 -0.796875q-1.046875 0 -1.75 0.796875q-0.6875 0.78125 -0.6875 2.375zm7.9765625 4.15625l0 -8.296875l1.265625 0l0 1.171875q0.90625 -1.359375 2.640625 -1.359375q0.75 0 1.375 0.265625q0.625 0.265625 0.9375 0.703125q0.3125 0.4375 0.4375 1.046875q0.078125 0.390625 0.078125 1.359375l0 5.109375l-1.40625 0l0 -5.046875q0 -0.859375 -0.171875 -1.28125q-0.15625 -0.4375 -0.578125 -0.6875q-0.40625 -0.25 -0.96875 -0.25q-0.90625 0 -1.5625 0.578125q-0.640625 0.5625 -0.640625 2.15625l0 4.53125l-1.40625 0z" fill-rule="nonzero"/><path fill="#000000" fill-opacity="0.0" d="m381.85205 445.79004l0 13.118103l0.06298828 0l0 13.118103" fill-rule="evenodd"/><path stroke="#000000" stroke-width="1.0" stroke-linejoin="round" stroke-linecap="butt" d="m381.85205 445.79004l0 13.118103l0.06298828 0l0 13.118103" fill-rule="evenodd"/><path fill="#f4cccc" d="m485.34863 253.49246l38.445984 0l5.942322 5.942383l0 29.711151l0 0l-50.33069 0l0 0l0 -29.711151z" fill-rule="evenodd"/><path stroke="#000000" stroke-width="1.0" stroke-linejoin="round" stroke-linecap="butt" d="m485.34863 253.49246l38.445984 0l5.942322 5.942383l0 29.711151l0 0l-50.33069 0l0 0l0 -29.711151z" fill-rule="evenodd"/><path fill="#000000" d="m497.88873 272.16983l0 -9.75l2.0625 0l0 0.765625l-1.125 0l0 8.203125l1.125 0l0 0.78125l-2.0625 0zm3.2106628 -2.125l0 -1.0625l1.0625 0l0 1.0625l-1.0625 0zm2.9606323 0l0 -1.0625l1.0625 0l0 1.0625l-1.0625 0zm2.9606628 0l0 -1.0625l1.0625 0l0 1.0625l-1.0625 0zm4.2575073 2.125l-2.0625 0l0 -0.78125l1.125 0l0 -8.203125l-1.125 0l0 -0.765625l2.0625 0l0 9.75z" fill-rule="nonzero"/><path fill="#000000" fill-opacity="0.0" d="m426.64304 471.97375l50.33072 0l0 35.653534l-50.33072 0z" fill-rule="evenodd"/><path stroke="#000000" stroke-width="1.0" stroke-linejoin="round" stroke-linecap="butt" d="m426.64304 471.97375l50.33072 0l0 35.653534l-50.33072 0z" fill-rule="evenodd"/><path fill="#000000" d="m444.8123 495.0681l0.203125 1.25q-0.59375 0.125 -1.0625 0.125q-0.765625 0 -1.1875 -0.234375q-0.421875 -0.25 -0.59375 -0.640625q-0.171875 -0.40625 -0.171875 -1.671875l0 -4.765625l-1.03125 0l0 -1.09375l1.03125 0l0 -2.0625l1.40625 -0.84375l0 2.90625l1.40625 0l0 1.09375l-1.40625 0l0 4.84375q0 0.609375 0.0625 0.78125q0.078125 0.171875 0.25 0.28125q0.171875 0.09375 0.484375 0.09375q0.234375 0 0.609375 -0.0625zm1.3828125 1.265625l0 -11.453125l1.40625 0l0 4.109375q0.984375 -1.140625 2.484375 -1.140625q0.921875 0 1.59375 0.359375q0.6875 0.359375 0.96875 1.0q0.296875 0.640625 0.296875 1.859375l0 5.265625l-1.40625 0l0 -5.265625q0 -1.046875 -0.453125 -1.53125q-0.453125 -0.484375 -1.296875 -0.484375q-0.625 0 -1.171875 0.328125q-0.546875 0.328125 -0.78125 0.890625q-0.234375 0.546875 -0.234375 1.515625l0 4.546875l-1.40625 0zm14.5703125 -2.671875l1.453125 0.171875q-0.34375 1.28125 -1.28125 1.984375q-0.921875 0.703125 -2.359375 0.703125q-1.828125 0 -2.890625 -1.125q-1.0625 -1.125 -1.0625 -3.140625q0 -2.09375 1.078125 -3.25q1.078125 -1.15625 2.796875 -1.15625q1.65625 0 2.703125 1.140625q1.0625 1.125 1.0625 3.171875q0 0.125 0 0.375l-6.1875 0q0.078125 1.375 0.765625 2.109375q0.703125 0.71875 1.734375 0.71875q0.78125 0 1.328125 -0.40625q0.546875 -0.40625 0.859375 -1.296875zm-4.609375 -2.28125l4.625 0q-0.09375 -1.046875 -0.53125 -1.5625q-0.671875 -0.8125 -1.734375 -0.8125q-0.96875 0 -1.640625 0.65625q-0.65625 0.640625 -0.71875 1.71875z" fill-rule="nonzero"/><path fill="#000000" fill-opacity="0.0" d="m544.0184 200.05511l61.07086 0l0 35.65355l-61.07086 0z" fill-rule="evenodd"/><path stroke="#000000" stroke-width="1.0" stroke-linejoin="round" stroke-linecap="butt" d="m544.0184 200.05511l61.07086 0l0 35.65355l-61.07086 0z" fill-rule="evenodd"/><path fill="#000000" d="m563.68274 221.36824l1.390625 0.1875q-0.234375 1.421875 -1.171875 2.234375q-0.921875 0.8125 -2.28125 0.8125q-1.703125 0 -2.75 -1.109375q-1.03125 -1.125 -1.03125 -3.203125q0 -1.34375 0.4375 -2.34375q0.453125 -1.015625 1.359375 -1.515625q0.921875 -0.5 1.984375 -0.5q1.359375 0 2.21875 0.6875q0.859375 0.671875 1.09375 1.9375l-1.359375 0.203125q-0.203125 -0.828125 -0.703125 -1.25q-0.484375 -0.421875 -1.1875 -0.421875q-1.0625 0 -1.734375 0.765625q-0.65625 0.75 -0.65625 2.40625q0 1.671875 0.640625 2.4375q0.640625 0.75 1.671875 0.75q0.828125 0 1.375 -0.5q0.5625 -0.515625 0.703125 -1.578125zm2.59375 3.046875l0 -11.453125l1.40625 0l0 4.109375q0.984375 -1.140625 2.484375 -1.140625q0.921875 0 1.59375 0.359375q0.6875 0.359375 0.96875 1.0q0.296875 0.640625 0.296875 1.859375l0 5.265625l-1.40625 0l0 -5.265625q0 -1.046875 -0.453125 -1.53125q-0.453125 -0.484375 -1.296875 -0.484375q-0.625 0 -1.171875 0.328125q-0.546875 0.328125 -0.78125 0.890625q-0.234375 0.546875 -0.234375 1.515625l0 4.546875l-1.40625 0zm14.304626 -1.03125q-0.78125 0.671875 -1.5 0.953125q-0.71875 0.265625 -1.546875 0.265625q-1.375 0 -2.109314 -0.671875q-0.734375 -0.671875 -0.734375 -1.703125q0 -0.609375 0.28125 -1.109375q0.28125 -0.515625 0.71875 -0.8125q0.45306396 -0.3125 1.015564 -0.46875q0.421875 -0.109375 1.25 -0.203125q1.703125 -0.203125 2.515625 -0.484375q0 -0.296875 0 -0.375q0 -0.859375 -0.390625 -1.203125q-0.546875 -0.484375 -1.609375 -0.484375q-0.984375 0 -1.46875 0.359375q-0.46875 0.34375 -0.6875 1.21875l-1.374939 -0.1875q0.1875 -0.875 0.609375 -1.421875q0.4375 -0.546875 1.249939 -0.828125q0.8125 -0.296875 1.875 -0.296875q1.0625 0 1.71875 0.25q0.671875 0.25 0.984375 0.625q0.3125 0.375 0.4375 0.953125q0.078125 0.359375 0.078125 1.296875l0 1.875q0 1.96875 0.078125 2.484375q0.09375 0.515625 0.359375 1.0l-1.46875 0q-0.21875 -0.4375 -0.28125 -1.03125zm-0.109375 -3.140625q-0.765625 0.3125 -2.296875 0.53125q-0.875 0.125 -1.234375 0.28125q-0.359375 0.15625 -0.5625 0.46875q-0.1875 0.296875 -0.1875 0.65625q0 0.5625 0.421875 0.9375q0.4375 0.375 1.25 0.375q0.8125 0 1.4375 -0.34375q0.640625 -0.359375 0.9375 -0.984375q0.234375 -0.46875 0.234375 -1.40625l0 -0.515625zm3.6015625 -5.671875l0 -1.609375l1.40625 0l0 1.609375l-1.40625 0zm0 9.84375l0 -8.296875l1.40625 0l0 8.296875l-1.40625 0zm3.5390625 0l0 -8.296875l1.265625 0l0 1.25q0.484375 -0.875 0.890625 -1.15625q0.40625 -0.28125 0.90625 -0.28125q0.703125 0 1.4375 0.453125l-0.484375 1.296875q-0.515625 -0.296875 -1.03125 -0.296875q-0.453125 0 -0.828125 0.28125q-0.359375 0.265625 -0.515625 0.765625q-0.234375 0.75 -0.234375 1.640625l0 4.34375l-1.40625 0z" fill-rule="nonzero"/><path fill="#000000" fill-opacity="0.0" d="m478.79538 200.05511l50.33072 0l0 35.65355l-50.33072 0z" fill-rule="evenodd"/><path stroke="#000000" stroke-width="1.0" stroke-linejoin="round" stroke-linecap="butt" d="m478.79538 200.05511l50.33072 0l0 35.65355l-50.33072 0z" fill-rule="evenodd"/><path fill="#000000" d="m493.4451 224.41512l0 -8.296875l1.265625 0l0 1.25q0.484375 -0.875 0.890625 -1.15625q0.40625 -0.28125 0.90625 -0.28125q0.703125 0 1.4375 0.453125l-0.484375 1.296875q-0.515625 -0.296875 -1.03125 -0.296875q-0.453125 0 -0.828125 0.28125q-0.359375 0.265625 -0.515625 0.765625q-0.234375 0.75 -0.234375 1.640625l0 4.34375l-1.40625 0zm10.78125 0l0 -1.21875q-0.96875 1.40625 -2.640625 1.40625q-0.734375 0 -1.375 -0.28125q-0.625 -0.28125 -0.9375 -0.703125q-0.3125 -0.4375 -0.4375 -1.046875q-0.078125 -0.421875 -0.078125 -1.3125l0 -5.140625l1.40625 0l0 4.59375q0 1.109375 0.078125 1.484375q0.140625 0.5625 0.5625 0.875q0.4375 0.3125 1.0625 0.3125q0.640625 0 1.1875 -0.3125q0.5625 -0.328125 0.78125 -0.890625q0.234375 -0.5625 0.234375 -1.625l0 -4.4375l1.40625 0l0 8.296875l-1.25 0zm3.1953125 0.6875l1.375 0.203125q0.078125 0.640625 0.46875 0.921875q0.53125 0.390625 1.4375 0.390625q0.96875 0 1.4999695 -0.390625q0.53125 -0.390625 0.71875 -1.09375q0.109375 -0.421875 0.109375 -1.8125q-0.921875 1.09375 -2.2968445 1.09375q-1.71875 0 -2.65625 -1.234375q-0.9375 -1.234375 -0.9375 -2.96875q0 -1.1875 0.421875 -2.1875q0.4375 -1.0 1.25 -1.546875q0.828125 -0.546875 1.921875 -0.546875q1.4687195 0 2.4218445 1.1875l0 -1.0l1.296875 0l0 7.171875q0 1.9375 -0.390625 2.75q-0.390625 0.8125 -1.25 1.28125q-0.8593445 0.46875 -2.1093445 0.46875q-1.484375 0 -2.40625 -0.671875q-0.90625 -0.671875 -0.875 -2.015625zm1.171875 -4.984375q0 1.625 0.640625 2.375q0.65625 0.75 1.625 0.75q0.96875 0 1.6249695 -0.734375q0.65625 -0.75 0.65625 -2.34375q0 -1.53125 -0.671875 -2.296875q-0.6718445 -0.78125 -1.6249695 -0.78125q-0.9375 0 -1.59375 0.765625q-0.65625 0.765625 -0.65625 2.265625z" fill-rule="nonzero"/><path fill="#000000" fill-opacity="0.0" d="m604.3544 192.72704l50.33069 0l0 35.65355l-50.33069 0z" fill-rule="evenodd"/><path fill="#000000" d="m624.3049 217.08704l0 -1.609375l1.609375 0l0 1.609375l-1.609375 0zm4.4453125 0l0 -1.609375l1.609375 0l0 1.609375l-1.609375 0zm4.4453125 0l0 -1.609375l1.609375 0l0 1.609375l-1.609375 0z" fill-rule="nonzero"/><path fill="#000000" fill-opacity="0.0" d="m349.06824 153.03937l61.07086 40.314957" fill-rule="evenodd"/><path stroke="#595959" stroke-width="1.0" stroke-linejoin="round" stroke-linecap="butt" d="m349.06824 153.03937l56.063538 37.00943" fill-rule="evenodd"/><path fill="#595959" stroke="#595959" stroke-width="1.0" stroke-linecap="butt" d="m404.2218 191.42728l4.6972656 1.1216583l-2.8773499 -3.8785858z" fill-rule="evenodd"/><path fill="#000000" fill-opacity="0.0" d="m246.86351 105.4042l210.39372 0l0 42.015755l-210.39372 0z" fill-rule="evenodd"/><path fill="#000000" d="m256.67603 132.3242l2.796875 -13.359383l2.1875 0l1.359375 8.65625q0.265625 1.7031326 0.34375 3.2656326q0.546875 -1.34375 1.859375 -3.6406326l4.671875 -8.28125l2.234375 0l-2.78125 13.359383l-1.765625 0l1.40625 -6.5000076q0.46875 -2.25 1.375 -5.046875q-0.578125 1.3125 -1.421875 2.8125l-4.96875 8.734383l-1.71875 0l-1.34375 -8.562508q-0.1875 -1.171875 -0.265625 -2.75q-0.21875 1.765625 -0.4375 2.796875l-1.78125 8.515633l-1.75 0zm15.634552 -3.671875q0 -2.8281326 1.671875 -4.6875076q1.375 -1.53125 3.609375 -1.53125q1.75 0 2.8125 1.09375q1.078125 1.09375 1.078125 2.953125q0 1.6562576 -0.671875 3.0937576q-0.671875 1.4375 -1.921875 2.203125q-1.25 0.765625 -2.625 0.765625q-1.125 0 -2.046875 -0.484375q-0.921875 -0.484375 -1.421875 -1.359375q-0.484375 -0.890625 -0.484375 -2.046875zm1.65625 -0.15625q0 1.359375 0.65625 2.0625q0.65625 0.703125 1.65625 0.703125q0.53125 0 1.046875 -0.203125q0.53125 -0.21875 0.96875 -0.65625q0.453125 -0.4375 0.765625 -1.0q0.3125 -0.5625 0.5 -1.203125q0.28125 -0.9062576 0.28125 -1.7343826q0 -1.3125 -0.65625 -2.03125q-0.65625 -0.734375 -1.65625 -0.734375q-0.78125 0 -1.421875 0.375q-0.625 0.375 -1.140625 1.09375q-0.515625 0.703125 -0.765625 1.640625q-0.234375 0.9375 -0.234375 1.6875076zm8.594452 0.515625l1.640625 -0.09375q0 0.703125 0.21875 1.21875q0.21875 0.5 0.796875 0.8125q0.59375 0.3125 1.375 0.3125q1.09375 0 1.640625 -0.4375q0.546875 -0.4375 0.546875 -1.015625q0 -0.4375 -0.328125 -0.8125q-0.328125 -0.390625 -1.640625 -0.953125q-1.3125 -0.5625076 -1.671875 -0.7812576q-0.609375 -0.375 -0.921875 -0.875q-0.3125 -0.515625 -0.3125 -1.171875q0 -1.140625 0.90625 -1.953125q0.921875 -0.828125 2.5625 -0.828125q1.828125 0 2.765625 0.84375q0.953125 0.84375 1.0 2.21875l-1.609375 0.109375q-0.046875 -0.875 -0.625 -1.390625q-0.578125 -0.515625 -1.65625 -0.515625q-0.84375 0 -1.328125 0.40625q-0.46875 0.390625 -0.46875 0.84375q0 0.453125 0.40625 0.796875q0.28125 0.234375 1.421875 0.734375q1.890625 0.8125 2.375 1.28125q0.78125 0.7656326 0.78125 1.8437576q0 0.71875 -0.4375 1.421875q-0.4375 0.6875 -1.34375 1.109375q-0.90625 0.40625 -2.140625 0.40625q-1.671875 0 -2.84375 -0.828125q-1.1875 -0.828125 -1.109375 -2.703125zm13.015625 1.96875l-0.265625 1.359375q-0.59375 0.140625 -1.15625 0.140625q-0.984375 0 -1.5625 -0.46875q-0.4375 -0.375 -0.4375 -1.0q0 -0.3125 0.234375 -1.46875l1.171875 -5.6250076l-1.296875 0l0.265625 -1.265625l1.296875 0l0.5 -2.375l1.890625 -1.140625l-0.734375 3.515625l1.625 0l-0.28125 1.265625l-1.609375 0l-1.125 5.3593826q-0.203125 1.015625 -0.203125 1.21875q0 0.28125 0.15625 0.4375q0.171875 0.15625 0.5625 0.15625q0.546875 0 0.96875 -0.109375zm6.3822327 1.34375l2.796875 -13.359383l1.640625 0l-2.78125 13.359383l-1.65625 0zm6.6135864 -11.484383l0.40625 -1.875l1.625 0l-0.390625 1.875l-1.640625 0zm-2.390625 11.484383l2.015625 -9.671883l1.65625 0l-2.03125 9.671883l-1.640625 0zm4.222931 0l2.796875 -13.359383l1.640625 0l-1.734375 8.28125l4.8125 -4.59375l2.171875 0l-4.125 3.609375l2.5 6.0625076l-1.8125 0l-1.921875 -4.9687576l-2.015625 1.7343826l-0.671875 3.234375l-1.640625 0zm16.40625 -3.28125l1.609375 0.15625q-0.34375 1.1875 -1.59375 2.265625q-1.234375 1.078125 -2.96875 1.078125q-1.0625 0 -1.96875 -0.5q-0.890625 -0.5 -1.359375 -1.4375q-0.46875 -0.953125 -0.46875 -2.15625q0 -1.5937576 0.734375 -3.0781326q0.734375 -1.484375 1.890625 -2.203125q1.171875 -0.734375 2.53125 -0.734375q1.734375 0 2.765625 1.078125q1.03125 1.0625 1.03125 2.921875q0 0.71875 -0.125 1.46875l-7.125 0q-0.046875 0.28125763 -0.046875 0.5000076q0 1.359375 0.625 2.078125q0.625 0.71875 1.53125 0.71875q0.84375 0 1.65625 -0.546875q0.828125 -0.5625 1.28125 -1.609375zm-4.78125 -2.4062576l5.421875 0q0.015625 -0.25 0.015625 -0.359375q0 -1.234375 -0.625 -1.890625q-0.625 -0.671875 -1.59375 -0.671875q-1.0625 0 -1.9375 0.734375q-0.859375 0.71875 -1.28125 2.1875zm7.9226074 5.6875076l2.796875 -13.359383l1.640625 0l-2.78125 13.359383l-1.65625 0zm3.660431 3.734375l0.09375 -1.546875q0.515625 0.140625 1.0 0.140625q0.5 0 0.8125 -0.21875q0.40625 -0.3125 0.875 -1.140625l0.53125 -0.9375l-1.625 -9.703133l1.625 0l0.734375 4.890625q0.21875 1.4531326 0.375 2.8906326l4.328125 -7.7812576l1.71875 0l-6.171875 10.953133q-0.890625 1.609375 -1.59375 2.125q-0.6875 0.515625 -1.578125 0.515625q-0.578125 0 -1.125 -0.1875zm15.136444 -3.734375l2.015625 -9.671883l1.5 0l-0.359375 1.6875q0.96875 -1.0 1.8125 -1.453125q0.859375 -0.453125 1.734375 -0.453125q1.1875 0 1.84375 0.640625q0.671875 0.625 0.671875 1.703125q0 0.53125 -0.234375 1.6875l-1.234375 5.8593826l-1.640625 0l1.28125 -6.1250076q0.1875 -0.890625 0.1875 -1.328125q0 -0.484375 -0.328125 -0.78125q-0.328125 -0.296875 -0.953125 -0.296875q-1.28125 0 -2.265625 0.90625q-0.984375 0.90625 -1.453125 3.125l-0.9375 4.5000076l-1.640625 0zm17.469452 -3.28125l1.609375 0.15625q-0.34375 1.1875 -1.59375 2.265625q-1.234375 1.078125 -2.96875 1.078125q-1.0625 0 -1.96875 -0.5q-0.890625 -0.5 -1.359375 -1.4375q-0.46875 -0.953125 -0.46875 -2.15625q0 -1.5937576 0.734375 -3.0781326q0.734375 -1.484375 1.890625 -2.203125q1.171875 -0.734375 2.53125 -0.734375q1.734375 0 2.765625 1.078125q1.03125 1.0625 1.03125 2.921875q0 0.71875 -0.125 1.46875l-7.125 0q-0.046875 0.28125763 -0.046875 0.5000076q0 1.359375 0.625 2.078125q0.625 0.71875 1.53125 0.71875q0.84375 0 1.65625 -0.546875q0.828125 -0.5625 1.28125 -1.609375zm-4.78125 -2.4062576l5.421875 0q0.015625 -0.25 0.015625 -0.359375q0 -1.234375 -0.625 -1.890625q-0.625 -0.671875 -1.59375 -0.671875q-1.0625 0 -1.9375 0.734375q-0.859375 0.71875 -1.28125 2.1875zm7.4069824 5.6875076l4.21875 -4.9062576l-2.421875 -4.765625l1.828125 0l0.8125 1.71875q0.453125 0.96875 0.828125 1.84375l2.78125 -3.5625l2.015625 0l-4.0625 4.890625l2.4375 4.7812576l-1.8125 0l-0.96875 -1.96875q-0.3125 -0.625 -0.703125 -1.5625l-2.875 3.53125l-2.078125 0zm13.828125 -1.34375l-0.265625 1.359375q-0.59375 0.140625 -1.15625 0.140625q-0.984375 0 -1.5625 -0.46875q-0.4375 -0.375 -0.4375 -1.0q0 -0.3125 0.234375 -1.46875l1.171875 -5.6250076l-1.296875 0l0.265625 -1.265625l1.296875 0l0.5 -2.375l1.890625 -1.140625l-0.734375 3.515625l1.625 0l-0.28125 1.265625l-1.609375 0l-1.125 5.3593826q-0.203125 1.015625 -0.203125 1.21875q0 0.28125 0.15625 0.4375q0.171875 0.15625 0.5625 0.15625q0.546875 0 0.96875 -0.109375zm8.350983 1.34375l-1.0 -9.671883l1.578125 0l0.4375 4.34375l0.171875 2.4375076q0.015625 0.28125 0.0625 1.109375q0.265625 -0.9375 0.453125 -1.421875q0.203125 -0.5 0.609375 -1.4218826l2.3125 -5.046875l1.796875 0l0.3125 4.828125q0.078125 1.1093826 0.09375 2.9531326q0.453125 -1.21875 1.484375 -3.3906326l2.078125 -4.390625l1.65625 0l-4.734375 9.671883l-1.71875 0l-0.359375 -5.6718826q-0.03125 -0.53125 -0.046875 -2.0625q-0.375 0.96875 -0.890625 2.109375l-2.5625 5.6250076l-1.734375 0zm11.926056 -3.671875q0 -2.8281326 1.671875 -4.6875076q1.375 -1.53125 3.609375 -1.53125q1.75 0 2.8125 1.09375q1.078125 1.09375 1.078125 2.953125q0 1.6562576 -0.671875 3.0937576q-0.671875 1.4375 -1.921875 2.203125q-1.25 0.765625 -2.625 0.765625q-1.125 0 -2.046875 -0.484375q-0.921875 -0.484375 -1.421875 -1.359375q-0.484375 -0.890625 -0.484375 -2.046875zm1.65625 -0.15625q0 1.359375 0.65625 2.0625q0.65625 0.703125 1.65625 0.703125q0.53125 0 1.046875 -0.203125q0.53125 -0.21875 0.96875 -0.65625q0.453125 -0.4375 0.765625 -1.0q0.3125 -0.5625 0.5 -1.203125q0.28125 -0.9062576 0.28125 -1.7343826q0 -1.3125 -0.65625 -2.03125q-0.65625 -0.734375 -1.65625 -0.734375q-0.78125 0 -1.421875 0.375q-0.625 0.375 -1.140625 1.09375q-0.515625 0.703125 -0.765625 1.640625q-0.234375 0.9375 -0.234375 1.6875076zm8.438232 3.828125l2.015625 -9.671883l1.453125 0l-0.40625 1.96875q0.75 -1.109375 1.453125 -1.640625q0.71875 -0.546875 1.46875 -0.546875q0.5 0 1.21875 0.359375l-0.671875 1.53125q-0.4375 -0.3125 -0.9375 -0.3125q-0.875 0 -1.78125 0.96875q-0.90625 0.953125 -1.4375 3.4687576l-0.8125 3.875l-1.5625 0zm12.728302 -1.40625q-1.40625 1.625 -2.953125 1.625q-1.375 0 -2.296875 -1.015625q-0.90625 -1.015625 -0.90625 -2.953125q0 -1.7656326 0.71875 -3.2187576q0.734375 -1.46875 1.8125 -2.1875q1.09375 -0.734375 2.1875 -0.734375q1.796875 0 2.71875 1.734375l1.09375 -5.203125l1.640625 0l-2.78125 13.359383l-1.53125 0l0.296875 -1.40625zm-4.515625 -2.640625q0 1.0 0.203125 1.59375q0.203125 0.578125 0.671875 0.96875q0.484375 0.375 1.171875 0.375q1.109375 0 2.03125 -1.15625q1.21875 -1.546875 1.21875 -3.8281326q0 -1.140625 -0.609375 -1.78125q-0.59375 -0.65625 -1.515625 -0.65625q-0.59375 0 -1.078125 0.265625q-0.484375 0.265625 -0.96875 0.90625q-0.46875 0.625 -0.796875 1.59375q-0.328125 0.96875 -0.328125 1.7187576z" fill-rule="nonzero"/><path fill="#000000" fill-opacity="0.0" d="m463.98688 105.4042l240.5039 0l0 42.015755l-240.5039 0z" fill-rule="evenodd"/><path fill="#000000" d="m473.89313 132.3242l2.796875 -13.359383l1.734375 0l2.25 5.015625q1.03125 2.296875 1.625 3.859375q0.359375 0.9062576 0.8125 2.4687576q0.234375 -1.6875 0.609375 -3.4843826l1.640625 -7.859375l1.75 0l-2.796875 13.359383l-1.765625 0l-3.3125 -7.7187576q-0.890625 -2.03125 -1.375 -3.59375q-0.140625 1.296875 -0.53125 3.203125l-1.6875 8.109383l-1.75 0zm20.28543 -3.28125l1.609375 0.15625q-0.34375 1.1875 -1.59375 2.265625q-1.234375 1.078125 -2.96875 1.078125q-1.0625 0 -1.96875 -0.5q-0.890625 -0.5 -1.359375 -1.4375q-0.46875 -0.953125 -0.46875 -2.15625q0 -1.5937576 0.734375 -3.0781326q0.734375 -1.484375 1.890625 -2.203125q1.171875 -0.734375 2.53125 -0.734375q1.734375 0 2.765625 1.078125q1.03125 1.0625 1.03125 2.921875q0 0.71875 -0.125 1.46875l-7.125 0q-0.046875 0.28125763 -0.046875 0.5000076q0 1.359375 0.625 2.078125q0.625 0.71875 1.53125 0.71875q0.84375 0 1.65625 -0.546875q0.828125 -0.5625 1.28125 -1.609375zm-4.78125 -2.4062576l5.421875 0q0.015625 -0.25 0.015625 -0.359375q0 -1.234375 -0.625 -1.890625q-0.625 -0.671875 -1.59375 -0.671875q-1.0625 0 -1.9375 0.734375q-0.859375 0.71875 -1.28125 2.1875zm7.4069824 5.6875076l4.21875 -4.9062576l-2.421875 -4.765625l1.828125 0l0.8125 1.71875q0.453125 0.96875 0.828125 1.84375l2.78125 -3.5625l2.015625 0l-4.0625 4.890625l2.4375 4.7812576l-1.8125 0l-0.96875 -1.96875q-0.3125 -0.625 -0.703125 -1.5625l-2.875 3.53125l-2.078125 0zm13.828125 -1.34375l-0.265625 1.359375q-0.59375 0.140625 -1.15625 0.140625q-0.984375 0 -1.5625 -0.46875q-0.4375 -0.375 -0.4375 -1.0q0 -0.3125 0.234375 -1.46875l1.171875 -5.6250076l-1.296875 0l0.265625 -1.265625l1.296875 0l0.5 -2.375l1.890625 -1.140625l-0.734375 3.515625l1.6249695 0l-0.28121948 1.265625l-1.609375 0l-1.125 5.3593826q-0.203125 1.015625 -0.203125 1.21875q0 0.28125 0.15625 0.4375q0.171875 0.15625 0.5625 0.15625q0.546875 0 0.96875 -0.109375zm6.5072327 1.34375l2.015625 -9.671883l1.65625 0l-0.34375 1.59375q0.921875 -1.03125 1.640625 -1.421875q0.734375 -0.390625 1.578125 -0.390625q0.90625 0 1.515625 0.484375q0.609375 0.46875 0.796875 1.328125q0.734375 -0.90625 1.546875 -1.359375q0.8125 -0.453125 1.71875 -0.453125q1.21875 0 1.8125 0.578125q0.609375 0.5625 0.609375 1.609375q0 0.4375 -0.203125 1.46875l-1.3125 6.2343826l-1.640625 0l1.328125 -6.3906326q0.171875 -0.78125 0.171875 -1.125q0 -0.46875 -0.296875 -0.734375q-0.296875 -0.28125 -0.84375 -0.28125q-0.75 0 -1.515625 0.453125q-0.765625 0.4375 -1.1875 1.171875q-0.421875 0.71875 -0.734375 2.21875l-0.984375 4.6875076l-1.65625 0l1.375 -6.5312576q0.140625 -0.671875 0.140625 -0.953125q0 -0.46875 -0.296875 -0.75q-0.296875 -0.296875 -0.765625 -0.296875q-0.703125 0 -1.484375 0.453125q-0.765625 0.4375 -1.25 1.234375q-0.46875 0.796875 -0.78125 2.265625l-0.953125 4.5781326l-1.65625 0zm15.8376465 -3.671875q0 -2.8281326 1.671875 -4.6875076q1.375 -1.53125 3.609375 -1.53125q1.75 0 2.8125 1.09375q1.078125 1.09375 1.078125 2.953125q0 1.6562576 -0.671875 3.0937576q-0.671875 1.4375 -1.921875 2.203125q-1.25 0.765625 -2.625 0.765625q-1.125 0 -2.046875 -0.484375q-0.921875 -0.484375 -1.421875 -1.359375q-0.484375 -0.890625 -0.484375 -2.046875zm1.65625 -0.15625q0 1.359375 0.65625 2.0625q0.65625 0.703125 1.65625 0.703125q0.53125 0 1.046875 -0.203125q0.53125 -0.21875 0.96875 -0.65625q0.453125 -0.4375 0.765625 -1.0q0.3125 -0.5625 0.5 -1.203125q0.28125 -0.9062576 0.28125 -1.7343826q0 -1.3125 -0.65625 -2.03125q-0.65625 -0.734375 -1.65625 -0.734375q-0.78125 0 -1.421875 0.375q-0.625 0.375 -1.140625 1.09375q-0.515625 0.703125 -0.765625 1.640625q-0.234375 0.9375 -0.234375 1.6875076zm8.594482 0.515625l1.640625 -0.09375q0 0.703125 0.21875 1.21875q0.21875 0.5 0.796875 0.8125q0.59375 0.3125 1.375 0.3125q1.09375 0 1.640625 -0.4375q0.546875 -0.4375 0.546875 -1.015625q0 -0.4375 -0.328125 -0.8125q-0.328125 -0.390625 -1.640625 -0.953125q-1.3125 -0.5625076 -1.671875 -0.7812576q-0.609375 -0.375 -0.921875 -0.875q-0.3125 -0.515625 -0.3125 -1.171875q0 -1.140625 0.90625 -1.953125q0.921875 -0.828125 2.5625 -0.828125q1.828125 0 2.765625 0.84375q0.953125 0.84375 1.0 2.21875l-1.609375 0.109375q-0.046875 -0.875 -0.625 -1.390625q-0.578125 -0.515625 -1.65625 -0.515625q-0.84375 0 -1.328125 0.40625q-0.46875 0.390625 -0.46875 0.84375q0 0.453125 0.40625 0.796875q0.28125 0.234375 1.421875 0.734375q1.890625 0.8125 2.375 1.28125q0.78125 0.7656326 0.78125 1.8437576q0 0.71875 -0.4375 1.421875q-0.4375 0.6875 -1.34375 1.109375q-0.90625 0.40625 -2.140625 0.40625q-1.671875 0 -2.84375 -0.828125q-1.1875 -0.828125 -1.109375 -2.703125zm13.015625 1.96875l-0.265625 1.359375q-0.59375 0.140625 -1.15625 0.140625q-0.984375 0 -1.5625 -0.46875q-0.4375 -0.375 -0.4375 -1.0q0 -0.3125 0.234375 -1.46875l1.171875 -5.6250076l-1.296875 0l0.265625 -1.265625l1.296875 0l0.5 -2.375l1.890625 -1.140625l-0.734375 3.515625l1.625 0l-0.28125 1.265625l-1.609375 0l-1.125 5.3593826q-0.203125 1.015625 -0.203125 1.21875q0 0.28125 0.15625 0.4375q0.171875 0.15625 0.5625 0.15625q0.546875 0 0.96875 -0.109375zm6.382263 1.34375l2.796875 -13.359383l1.640625 0l-2.78125 13.359383l-1.65625 0zm6.6135254 -11.484383l0.40625 -1.875l1.625 0l-0.390625 1.875l-1.640625 0zm-2.390625 11.484383l2.015625 -9.671883l1.65625 0l-2.03125 9.671883l-1.640625 0zm4.2229614 0l2.796875 -13.359383l1.640625 0l-1.734375 8.28125l4.8125 -4.59375l2.171875 0l-4.125 3.609375l2.5 6.0625076l-1.8125 0l-1.921875 -4.9687576l-2.015625 1.7343826l-0.671875 3.234375l-1.640625 0zm16.40625 -3.28125l1.609375 0.15625q-0.34375 1.1875 -1.59375 2.265625q-1.234375 1.078125 -2.96875 1.078125q-1.0625 0 -1.96875 -0.5q-0.890625 -0.5 -1.359375 -1.4375q-0.46875 -0.953125 -0.46875 -2.15625q0 -1.5937576 0.734375 -3.0781326q0.734375 -1.484375 1.890625 -2.203125q1.171875 -0.734375 2.53125 -0.734375q1.734375 0 2.765625 1.078125q1.03125 1.0625 1.03125 2.921875q0 0.71875 -0.125 1.46875l-7.125 0q-0.046875 0.28125763 -0.046875 0.5000076q0 1.359375 0.625 2.078125q0.625 0.71875 1.53125 0.71875q0.84375 0 1.65625 -0.546875q0.828125 -0.5625 1.28125 -1.609375zm-4.78125 -2.4062576l5.421875 0q0.015625 -0.25 0.015625 -0.359375q0 -1.234375 -0.625 -1.890625q-0.625 -0.671875 -1.59375 -0.671875q-1.0625 0 -1.9375 0.734375q-0.859375 0.71875 -1.28125 2.1875zm7.9226074 5.6875076l2.796875 -13.359383l1.640625 0l-2.78125 13.359383l-1.65625 0zm3.6604614 3.734375l0.09375 -1.546875q0.515625 0.140625 1.0 0.140625q0.5 0 0.8125 -0.21875q0.40625 -0.3125 0.875 -1.140625l0.53125 -0.9375l-1.625 -9.703133l1.625 0l0.734375 4.890625q0.21875 1.4531326 0.375 2.8906326l4.328125 -7.7812576l1.71875 0l-6.171875 10.953133q-0.890625 1.609375 -1.59375 2.125q-0.6875 0.515625 -1.578125 0.515625q-0.578125 0 -1.125 -0.1875zm15.136414 -3.734375l2.015625 -9.671883l1.5 0l-0.359375 1.6875q0.96875 -1.0 1.8125 -1.453125q0.859375 -0.453125 1.734375 -0.453125q1.1875 0 1.84375 0.640625q0.671875 0.625 0.671875 1.703125q0 0.53125 -0.234375 1.6875l-1.234375 5.8593826l-1.640625 0l1.28125 -6.1250076q0.1875 -0.890625 0.1875 -1.328125q0 -0.484375 -0.328125 -0.78125q-0.328125 -0.296875 -0.953125 -0.296875q-1.28125 0 -2.265625 0.90625q-0.984375 0.90625 -1.453125 3.125l-0.9375 4.5000076l-1.640625 0zm17.469482 -3.28125l1.609375 0.15625q-0.34375 1.1875 -1.59375 2.265625q-1.234375 1.078125 -2.96875 1.078125q-1.0625 0 -1.96875 -0.5q-0.890625 -0.5 -1.359375 -1.4375q-0.46875 -0.953125 -0.46875 -2.15625q0 -1.5937576 0.734375 -3.0781326q0.734375 -1.484375 1.890625 -2.203125q1.171875 -0.734375 2.53125 -0.734375q1.734375 0 2.765625 1.078125q1.03125 1.0625 1.03125 2.921875q0 0.71875 -0.125 1.46875l-7.125 0q-0.046875 0.28125763 -0.046875 0.5000076q0 1.359375 0.625 2.078125q0.625 0.71875 1.53125 0.71875q0.84375 0 1.65625 -0.546875q0.828125 -0.5625 1.28125 -1.609375zm-4.78125 -2.4062576l5.421875 0q0.015625 -0.25 0.015625 -0.359375q0 -1.234375 -0.625 -1.890625q-0.625 -0.671875 -1.59375 -0.671875q-1.0625 0 -1.9375 0.734375q-0.859375 0.71875 -1.28125 2.1875zm7.4069214 5.6875076l4.21875 -4.9062576l-2.421875 -4.765625l1.828125 0l0.8125 1.71875q0.453125 0.96875 0.828125 1.84375l2.78125 -3.5625l2.015625 0l-4.0625 4.890625l2.4375 4.7812576l-1.8125 0l-0.96875 -1.96875q-0.3125 -0.625 -0.703125 -1.5625l-2.875 3.53125l-2.078125 0zm13.828125 -1.34375l-0.265625 1.359375q-0.59375 0.140625 -1.15625 0.140625q-0.984375 0 -1.5625 -0.46875q-0.4375 -0.375 -0.4375 -1.0q0 -0.3125 0.234375 -1.46875l1.171875 -5.6250076l-1.296875 0l0.265625 -1.265625l1.296875 0l0.5 -2.375l1.890625 -1.140625l-0.734375 3.515625l1.625 0l-0.28125 1.265625l-1.609375 0l-1.125 5.3593826q-0.203125 1.015625 -0.203125 1.21875q0 0.28125 0.15625 0.4375q0.171875 0.15625 0.5625 0.15625q0.546875 0 0.96875 -0.109375zm8.351013 1.34375l-1.0 -9.671883l1.578125 0l0.4375 4.34375l0.171875 2.4375076q0.015625 0.28125 0.0625 1.109375q0.265625 -0.9375 0.453125 -1.421875q0.203125 -0.5 0.609375 -1.4218826l2.3125 -5.046875l1.796875 0l0.3125 4.828125q0.078125 1.1093826 0.09375 2.9531326q0.453125 -1.21875 1.484375 -3.3906326l2.078125 -4.390625l1.65625 0l-4.734375 9.671883l-1.71875 0l-0.359375 -5.6718826q-0.03125 -0.53125 -0.046875 -2.0625q-0.375 0.96875 -0.890625 2.109375l-2.5625 5.6250076l-1.734375 0zm11.926086 -3.671875q0 -2.8281326 1.671875 -4.6875076q1.375 -1.53125 3.609375 -1.53125q1.75 0 2.8125 1.09375q1.078125 1.09375 1.078125 2.953125q0 1.6562576 -0.671875 3.0937576q-0.671875 1.4375 -1.921875 2.203125q-1.25 0.765625 -2.625 0.765625q-1.125 0 -2.046875 -0.484375q-0.921875 -0.484375 -1.421875 -1.359375q-0.484375 -0.890625 -0.484375 -2.046875zm1.65625 -0.15625q0 1.359375 0.65625 2.0625q0.65625 0.703125 1.65625 0.703125q0.53125 0 1.046875 -0.203125q0.53125 -0.21875 0.96875 -0.65625q0.453125 -0.4375 0.765625 -1.0q0.3125 -0.5625 0.5 -1.203125q0.28125 -0.9062576 0.28125 -1.7343826q0 -1.3125 -0.65625 -2.03125q-0.65625 -0.734375 -1.65625 -0.734375q-0.78125 0 -1.421875 0.375q-0.625 0.375 -1.140625 1.09375q-0.515625 0.703125 -0.765625 1.640625q-0.234375 0.9375 -0.234375 1.6875076zm8.438171 3.828125l2.015625 -9.671883l1.453125 0l-0.40625 1.96875q0.75 -1.109375 1.453125 -1.640625q0.71875 -0.546875 1.46875 -0.546875q0.5 0 1.21875 0.359375l-0.671875 1.53125q-0.4375 -0.3125 -0.9375 -0.3125q-0.875 0 -1.78125 0.96875q-0.90625 0.953125 -1.4375 3.4687576l-0.8125 3.875l-1.5625 0zm12.7283325 -1.40625q-1.40625 1.625 -2.953125 1.625q-1.375 0 -2.296875 -1.015625q-0.90625 -1.015625 -0.90625 -2.953125q0 -1.7656326 0.71875 -3.2187576q0.734375 -1.46875 1.8125 -2.1875q1.09375 -0.734375 2.1875 -0.734375q1.796875 0 2.71875 1.734375l1.09375 -5.203125l1.640625 0l-2.78125 13.359383l-1.53125 0l0.296875 -1.40625zm-4.515625 -2.640625q0 1.0 0.203125 1.59375q0.203125 0.578125 0.671875 0.96875q0.484375 0.375 1.171875 0.375q1.109375 0 2.03125 -1.15625q1.21875 -1.546875 1.21875 -3.8281326q0 -1.140625 -0.609375 -1.78125q-0.59375 -0.65625 -1.515625 -0.65625q-0.59375 0 -1.078125 0.265625q-0.484375 0.265625 -0.96875 0.90625q-0.46875 0.625 -0.796875 1.59375q-0.328125 0.96875 -0.328125 1.7187576z" fill-rule="nonzero"/><path fill="#000000" fill-opacity="0.0" d="m520.06036 139.60367l-10.992126 48.12599" fill-rule="evenodd"/><path stroke="#595959" stroke-width="1.0" stroke-linejoin="round" stroke-linecap="butt" d="m520.06036 139.60367l-9.656128 42.276627" fill-rule="evenodd"/><path fill="#595959" stroke="#595959" stroke-width="1.0" stroke-linecap="butt" d="m508.79398 181.51251l0.5997925 4.7919464l2.620758 -4.056381z" fill-rule="evenodd"/><path fill="#000000" fill-opacity="0.0" d="m624.1102 142.6588l240.50397 0l0 42.015747l-240.50397 0z" fill-rule="evenodd"/><path fill="#000000" d="m633.8602 169.5788l2.78125 -13.359375l1.78125 0l-2.46875 11.84375l6.9375 0l-0.3125 1.515625l-8.71875 0zm17.344482 -3.28125l1.609375 0.15625q-0.34375 1.1875 -1.59375 2.265625q-1.234375 1.078125 -2.96875 1.078125q-1.0625 0 -1.96875 -0.5q-0.890625 -0.5 -1.359375 -1.4375q-0.46875 -0.953125 -0.46875 -2.15625q0 -1.59375 0.734375 -3.078125q0.734375 -1.484375 1.890625 -2.203125q1.171875 -0.734375 2.53125 -0.734375q1.734375 0 2.765625 1.078125q1.03125 1.0625 1.03125 2.921875q0 0.71875 -0.125 1.46875l-7.125 0q-0.046875 0.28125 -0.046875 0.5q0 1.359375 0.625 2.078125q0.625 0.71875 1.53125 0.71875q0.84375 0 1.65625 -0.546875q0.828125 -0.5625 1.28125 -1.609375zm-4.78125 -2.40625l5.421875 0q0.015625 -0.25 0.015625 -0.359375q0 -1.234375 -0.625 -1.890625q-0.625 -0.671875 -1.59375 -0.671875q-1.0625 0 -1.9375 0.734375q-0.859375 0.71875 -1.28125 2.1875zm8.219482 2.375l1.640625 -0.09375q0 0.703125 0.21875 1.21875q0.21875 0.5 0.796875 0.8125q0.59375 0.3125 1.375 0.3125q1.09375 0 1.640625 -0.4375q0.546875 -0.4375 0.546875 -1.015625q0 -0.4375 -0.328125 -0.8125q-0.328125 -0.390625 -1.640625 -0.953125q-1.3125 -0.5625 -1.671875 -0.78125q-0.609375 -0.375 -0.921875 -0.875q-0.3125 -0.515625 -0.3125 -1.171875q0 -1.140625 0.90625 -1.953125q0.921875 -0.828125 2.5625 -0.828125q1.828125 0 2.765625 0.84375q0.953125 0.84375 1.0 2.21875l-1.609375 0.109375q-0.046875 -0.875 -0.625 -1.390625q-0.578125 -0.515625 -1.65625 -0.515625q-0.84375 0 -1.328125 0.40625q-0.46875 0.390625 -0.46875 0.84375q0 0.453125 0.40625 0.796875q0.28125 0.234375 1.421875 0.734375q1.890625 0.8125 2.375 1.28125q0.78125 0.765625 0.78125 1.84375q0 0.71875 -0.4375 1.421875q-0.4375 0.6875 -1.34375 1.109375q-0.90625 0.40625 -2.140625 0.40625q-1.671875 0 -2.84375 -0.828125q-1.1875 -0.828125 -1.109375 -2.703125zm9.328125 0l1.640625 -0.09375q0 0.703125 0.21875 1.21875q0.21875 0.5 0.796875 0.8125q0.59375 0.3125 1.375 0.3125q1.09375 0 1.640625 -0.4375q0.546875 -0.4375 0.546875 -1.015625q0 -0.4375 -0.328125 -0.8125q-0.328125 -0.390625 -1.640625 -0.953125q-1.3125 -0.5625 -1.671875 -0.78125q-0.609375 -0.375 -0.921875 -0.875q-0.3125 -0.515625 -0.3125 -1.171875q0 -1.140625 0.90625 -1.953125q0.921875 -0.828125 2.5625 -0.828125q1.828125 0 2.765625 0.84375q0.953125 0.84375 1.0 2.21875l-1.609375 0.109375q-0.046875 -0.875 -0.625 -1.390625q-0.578125 -0.515625 -1.65625 -0.515625q-0.84375 0 -1.328125 0.40625q-0.46875 0.390625 -0.46875 0.84375q0 0.453125 0.40625 0.796875q0.28125 0.234375 1.421875 0.734375q1.890625 0.8125 2.375 1.28125q0.78125 0.765625 0.78125 1.84375q0 0.71875 -0.4375 1.421875q-0.4375 0.6875 -1.34375 1.109375q-0.90625 0.40625 -2.140625 0.40625q-1.671875 0 -2.84375 -0.828125q-1.1875 -0.828125 -1.109375 -2.703125zm14.214539 3.3125l2.796875 -13.359375l1.640625 0l-2.78125 13.359375l-1.65625 0zm6.6135864 -11.484375l0.40625 -1.875l1.625 0l-0.390625 1.875l-1.640625 0zm-2.390625 11.484375l2.015625 -9.671875l1.65625 0l-2.03125 9.671875l-1.640625 0zm4.2229004 0l2.796875 -13.359375l1.640625 0l-1.734375 8.28125l4.8125 -4.59375l2.171875 0l-4.125 3.609375l2.5 6.0625l-1.8125 0l-1.921875 -4.96875l-2.015625 1.734375l-0.671875 3.234375l-1.640625 0zm16.40625 -3.28125l1.609375 0.15625q-0.34375 1.1875 -1.59375 2.265625q-1.234375 1.078125 -2.96875 1.078125q-1.0625 0 -1.96875 -0.5q-0.890625 -0.5 -1.359375 -1.4375q-0.46875 -0.953125 -0.46875 -2.15625q0 -1.59375 0.734375 -3.078125q0.734375 -1.484375 1.890625 -2.203125q1.171875 -0.734375 2.53125 -0.734375q1.734375 0 2.765625 1.078125q1.03125 1.0625 1.03125 2.921875q0 0.71875 -0.125 1.46875l-7.125 0q-0.046875 0.28125 -0.046875 0.5q0 1.359375 0.625 2.078125q0.625 0.71875 1.53125 0.71875q0.84375 0 1.65625 -0.546875q0.828125 -0.5625 1.28125 -1.609375zm-4.78125 -2.40625l5.421875 0q0.015625 -0.25 0.015625 -0.359375q0 -1.234375 -0.625 -1.890625q-0.625 -0.671875 -1.59375 -0.671875q-1.0625 0 -1.9375 0.734375q-0.859375 0.71875 -1.28125 2.1875zm7.9226074 5.6875l2.796875 -13.359375l1.640625 0l-2.78125 13.359375l-1.65625 0zm3.6604614 3.734375l0.09375 -1.546875q0.515625 0.140625 1.0 0.140625q0.5 0 0.8125 -0.21875q0.40625 -0.3125 0.875 -1.140625l0.53125 -0.9375l-1.625 -9.703125l1.625 0l0.734375 4.890625q0.21875 1.453125 0.375 2.890625l4.328125 -7.78125l1.71875 0l-6.171875 10.953125q-0.890625 1.609375 -1.59375 2.125q-0.6875 0.515625 -1.578125 0.515625q-0.578125 0 -1.125 -0.1875zm15.136414 -3.734375l2.015625 -9.671875l1.5 0l-0.359375 1.6875q0.96875 -1.0 1.8125 -1.453125q0.859375 -0.453125 1.734375 -0.453125q1.1875 0 1.84375 0.640625q0.671875 0.625 0.671875 1.703125q0 0.53125 -0.234375 1.6875l-1.234375 5.859375l-1.640625 0l1.28125 -6.125q0.1875 -0.890625 0.1875 -1.328125q0 -0.484375 -0.328125 -0.78125q-0.328125 -0.296875 -0.953125 -0.296875q-1.28125 0 -2.265625 0.90625q-0.984375 0.90625 -1.453125 3.125l-0.9375 4.5l-1.640625 0zm17.469482 -3.28125l1.609375 0.15625q-0.34375 1.1875 -1.59375 2.265625q-1.234375 1.078125 -2.96875 1.078125q-1.0625 0 -1.96875 -0.5q-0.890625 -0.5 -1.359375 -1.4375q-0.46875 -0.953125 -0.46875 -2.15625q0 -1.59375 0.734375 -3.078125q0.734375 -1.484375 1.890625 -2.203125q1.171875 -0.734375 2.53125 -0.734375q1.734375 0 2.765625 1.078125q1.03125 1.0625 1.03125 2.921875q0 0.71875 -0.125 1.46875l-7.125 0q-0.046875 0.28125 -0.046875 0.5q0 1.359375 0.625 2.078125q0.625 0.71875 1.53125 0.71875q0.84375 0 1.65625 -0.546875q0.828125 -0.5625 1.28125 -1.609375zm-4.78125 -2.40625l5.421875 0q0.015625 -0.25 0.015625 -0.359375q0 -1.234375 -0.625 -1.890625q-0.625 -0.671875 -1.59375 -0.671875q-1.0625 0 -1.9375 0.734375q-0.859375 0.71875 -1.28125 2.1875zm7.4069824 5.6875l4.21875 -4.90625l-2.421875 -4.765625l1.828125 0l0.8125 1.71875q0.453125 0.96875 0.828125 1.84375l2.78125 -3.5625l2.015625 0l-4.0625 4.890625l2.4375 4.78125l-1.8125 0l-0.96875 -1.96875q-0.3125 -0.625 -0.703125 -1.5625l-2.875 3.53125l-2.078125 0zm13.828125 -1.34375l-0.265625 1.359375q-0.59375 0.140625 -1.15625 0.140625q-0.984375 0 -1.5625 -0.46875q-0.4375 -0.375 -0.4375 -1.0q0 -0.3125 0.234375 -1.46875l1.171875 -5.625l-1.296875 0l0.265625 -1.265625l1.296875 0l0.5 -2.375l1.890625 -1.140625l-0.734375 3.515625l1.625 0l-0.28125 1.265625l-1.609375 0l-1.125 5.359375q-0.203125 1.015625 -0.203125 1.21875q0 0.28125 0.15625 0.4375q0.171875 0.15625 0.5625 0.15625q0.546875 0 0.96875 -0.109375zm8.350952 1.34375l-1.0 -9.671875l1.578125 0l0.4375 4.34375l0.171875 2.4375q0.015625 0.28125 0.0625 1.109375q0.265625 -0.9375 0.453125 -1.421875q0.203125 -0.5 0.609375 -1.421875l2.3125 -5.046875l1.796875 0l0.3125 4.828125q0.078125 1.109375 0.09375 2.953125q0.453125 -1.21875 1.484375 -3.390625l2.078125 -4.390625l1.65625 0l-4.734375 9.671875l-1.71875 0l-0.359375 -5.671875q-0.03125 -0.53125 -0.046875 -2.0625q-0.375 0.96875 -0.890625 2.109375l-2.5625 5.625l-1.734375 0zm11.926086 -3.671875q0 -2.828125 1.671875 -4.6875q1.375 -1.53125 3.609375 -1.53125q1.75 0 2.8125 1.09375q1.078125 1.09375 1.078125 2.953125q0 1.65625 -0.671875 3.09375q-0.671875 1.4375 -1.921875 2.203125q-1.25 0.765625 -2.625 0.765625q-1.125 0 -2.046875 -0.484375q-0.921875 -0.484375 -1.421875 -1.359375q-0.484375 -0.890625 -0.484375 -2.046875zm1.65625 -0.15625q0 1.359375 0.65625 2.0625q0.65625 0.703125 1.65625 0.703125q0.53125 0 1.046875 -0.203125q0.53125 -0.21875 0.96875 -0.65625q0.453125 -0.4375 0.765625 -1.0q0.3125 -0.5625 0.5 -1.203125q0.28125 -0.90625 0.28125 -1.734375q0 -1.3125 -0.65625 -2.03125q-0.65625 -0.734375 -1.65625 -0.734375q-0.78125 0 -1.421875 0.375q-0.625 0.375 -1.140625 1.09375q-0.515625 0.703125 -0.765625 1.640625q-0.234375 0.9375 -0.234375 1.6875zm8.438232 3.828125l2.015625 -9.671875l1.453125 0l-0.40625 1.96875q0.75 -1.109375 1.453125 -1.640625q0.71875 -0.546875 1.46875 -0.546875q0.5 0 1.21875 0.359375l-0.671875 1.53125q-0.4375 -0.3125 -0.9375 -0.3125q-0.875 0 -1.78125 0.96875q-0.90625 0.953125 -1.4375 3.46875l-0.8125 3.875l-1.5625 0zm12.7282715 -1.40625q-1.40625 1.625 -2.953125 1.625q-1.375 0 -2.296875 -1.015625q-0.90625 -1.015625 -0.90625 -2.953125q0 -1.765625 0.71875 -3.21875q0.734375 -1.46875 1.8125 -2.1875q1.09375 -0.734375 2.1875 -0.734375q1.796875 0 2.71875 1.734375l1.09375 -5.203125l1.640625 0l-2.78125 13.359375l-1.53125 0l0.296875 -1.40625zm-4.515625 -2.640625q0 1.0 0.203125 1.59375q0.203125 0.578125 0.671875 0.96875q0.484375 0.375 1.171875 0.375q1.109375 0 2.03125 -1.15625q1.21875 -1.546875 1.21875 -3.828125q0 -1.140625 -0.609375 -1.78125q-0.59375 -0.65625 -1.515625 -0.65625q-0.59375 0 -1.078125 0.265625q-0.484375 0.265625 -0.96875 0.90625q-0.46875 0.625 -0.796875 1.59375q-0.328125 0.96875 -0.328125 1.71875zm8.531982 0.734375l1.640625 -0.09375q0 0.703125 0.21875 1.21875q0.21875 0.5 0.796875 0.8125q0.59375 0.3125 1.375 0.3125q1.09375 0 1.640625 -0.4375q0.546875 -0.4375 0.546875 -1.015625q0 -0.4375 -0.328125 -0.8125q-0.328125 -0.390625 -1.640625 -0.953125q-1.3125 -0.5625 -1.671875 -0.78125q-0.609375 -0.375 -0.921875 -0.875q-0.3125 -0.515625 -0.3125 -1.171875q0 -1.140625 0.90625 -1.953125q0.921875 -0.828125 2.5625 -0.828125q1.828125 0 2.765625 0.84375q0.953125 0.84375 1.0 2.21875l-1.609375 0.109375q-0.046875 -0.875 -0.625 -1.390625q-0.578125 -0.515625 -1.65625 -0.515625q-0.84375 0 -1.328125 0.40625q-0.46875 0.390625 -0.46875 0.84375q0 0.453125 0.40625 0.796875q0.28125 0.234375 1.421875 0.734375q1.890625 0.8125 2.375 1.28125q0.78125 0.765625 0.78125 1.84375q0 0.71875 -0.4375 1.421875q-0.4375 0.6875 -1.34375 1.109375q-0.90625 0.40625 -2.140625 0.40625q-1.671875 0 -2.84375 -0.828125q-1.1875 -0.828125 -1.109375 -2.703125z" fill-rule="nonzero"/><path fill="#000000" fill-opacity="0.0" d="m675.68243 184.67455l-31.055115 9.889755" fill-rule="evenodd"/><path stroke="#595959" stroke-width="1.0" stroke-linejoin="round" stroke-linecap="butt" d="m675.68243 184.67455l-25.338013 8.069092" fill-rule="evenodd"/><path fill="#595959" stroke="#595959" stroke-width="1.0" stroke-linecap="butt" d="m649.8432 191.1698l-3.822937 2.9508972l4.8253174 0.19680786z" fill-rule="evenodd"/><path fill="#000000" fill-opacity="0.0" d="m726.3622 181.68242l36.0 15.874008" fill-rule="evenodd"/><path stroke="#595959" stroke-width="1.0" stroke-linejoin="round" stroke-linecap="butt" d="m726.3622 181.68242l30.51001 13.453247" fill-rule="evenodd"/><path fill="#595959" stroke="#595959" stroke-width="1.0" stroke-linecap="butt" d="m756.2058 196.64699l4.8187866 0.31962585l-3.485962 -3.3422852z" fill-rule="evenodd"/><path fill="#f4cccc" d="m432.58453 410.09973l38.445953 0l5.942383 5.942383l0 29.711182l0 0l-50.33072 0l0 0l0 -29.711182z" fill-rule="evenodd"/><path stroke="#000000" stroke-width="1.0" stroke-linejoin="round" stroke-linecap="butt" d="m432.58453 410.09973l38.445953 0l5.942383 5.942383l0 29.711182l0 0l-50.33072 0l0 0l0 -29.711182z" fill-rule="evenodd"/><path fill="#000000" d="m445.12463 428.7771l0 -9.75l2.0625 0l0 0.765625l-1.125 0l0 8.203125l1.125 0l0 0.78125l-2.0625 0zm3.2106628 -2.125l0 -1.0625l1.0625 0l0 1.0625l-1.0625 0zm2.9606323 0l0 -1.0625l1.0625 0l0 1.0625l-1.0625 0zm2.9606628 0l0 -1.0625l1.0625 0l0 1.0625l-1.0625 0zm4.2575073 2.125l-2.0625 0l0 -0.78125l1.125 0l0 -8.203125l-1.125 0l0 -0.765625l2.0625 0l0 9.75z" fill-rule="nonzero"/><path fill="#d9d9d9" d="m436.76816 386.77692l15.039368 -10.48819l15.039368 10.48819l-7.519684 0l0 10.48819l-15.039368 0l0 -10.48819z" fill-rule="evenodd"/><path stroke="#000000" stroke-width="1.0" stroke-linejoin="round" stroke-linecap="butt" d="m436.76816 386.77692l15.039368 -10.48819l15.039368 10.48819l-7.519684 0l0 10.48819l-15.039368 0l0 -10.48819z" fill-rule="evenodd"/><path fill="#000000" fill-opacity="0.0" d="m451.74445 445.79004l0 13.118103l0.06298828 0l0 13.118103" fill-rule="evenodd"/><path stroke="#000000" stroke-width="1.0" stroke-linejoin="round" stroke-linecap="butt" d="m451.74445 445.79004l0 13.118103l0.06298828 0l0 13.118103" fill-rule="evenodd"/><path fill="#000000" fill-opacity="0.0" d="m413.57227 200.05511l50.33072 0l0 35.65355l-50.33072 0z" fill-rule="evenodd"/><path stroke="#000000" stroke-width="1.0" stroke-linejoin="round" stroke-linecap="butt" d="m413.57227 200.05511l50.33072 0l0 35.65355l-50.33072 0z" fill-rule="evenodd"/><path fill="#000000" d="m426.4642 224.41512l0 -8.296875l1.25 0l0 1.15625q0.390625 -0.609375 1.03125 -0.96875q0.65625 -0.375 1.484375 -0.375q0.921875 0 1.515625 0.390625q0.59375 0.375 0.828125 1.0625q0.984375 -1.453125 2.5625 -1.453125q1.234375 0 1.890625 0.6875q0.671875 0.671875 0.671875 2.09375l0 5.703125l-1.390625 0l0 -5.234375q0 -0.84375 -0.140625 -1.203125q-0.140625 -0.375 -0.5 -0.59375q-0.359375 -0.234375 -0.84375 -0.234375q-0.875 0 -1.453125 0.578125q-0.578125 0.578125 -0.578125 1.859375l0 4.828125l-1.40625 0l0 -5.390625q0 -0.9375 -0.34375 -1.40625q-0.34375 -0.46875 -1.125 -0.46875q-0.59375 0 -1.09375 0.3125q-0.5 0.3125 -0.734375 0.921875q-0.21875 0.59375 -0.21875 1.71875l0 4.3125l-1.40625 0zm18.734375 -1.03125q-0.78125 0.671875 -1.5 0.953125q-0.71875 0.265625 -1.546875 0.265625q-1.375 0 -2.109375 -0.671875q-0.734375 -0.671875 -0.734375 -1.703125q0 -0.609375 0.28125 -1.109375q0.28125 -0.515625 0.71875 -0.8125q0.453125 -0.3125 1.015625 -0.46875q0.421875 -0.109375 1.25 -0.203125q1.703125 -0.203125 2.515625 -0.484375q0 -0.296875 0 -0.375q0 -0.859375 -0.390625 -1.203125q-0.546875 -0.484375 -1.609375 -0.484375q-0.984375 0 -1.46875 0.359375q-0.46875 0.34375 -0.6875 1.21875l-1.375 -0.1875q0.1875 -0.875 0.609375 -1.421875q0.4375 -0.546875 1.25 -0.828125q0.8125 -0.296875 1.875 -0.296875q1.0625 0 1.71875 0.25q0.671875 0.25 0.984375 0.625q0.3125 0.375 0.4375 0.953125q0.078125 0.359375 0.078125 1.296875l0 1.875q0 1.96875 0.078125 2.484375q0.09375 0.515625 0.359375 1.0l-1.46875 0q-0.21875 -0.4375 -0.28125 -1.03125zm-0.109375 -3.140625q-0.765625 0.3125 -2.296875 0.53125q-0.875 0.125 -1.234375 0.28125q-0.359375 0.15625 -0.5625 0.46875q-0.1875 0.296875 -0.1875 0.65625q0 0.5625 0.421875 0.9375q0.4375 0.375 1.25 0.375q0.8125 0 1.4375 -0.34375q0.640625 -0.359375 0.9375 -0.984375q0.234375 -0.46875 0.234375 -1.40625l0 -0.515625zm6.6640625 2.90625l0.203125 1.25q-0.59375 0.125 -1.0625 0.125q-0.765625 0 -1.1875 -0.234375q-0.421875 -0.25 -0.59375 -0.640625q-0.171875 -0.40625 -0.171875 -1.671875l0 -4.765625l-1.03125 0l0 -1.09375l1.03125 0l0 -2.0625l1.40625 -0.84375l0 2.90625l1.40625 0l0 1.09375l-1.40625 0l0 4.84375q0 0.609375 0.0625 0.78125q0.078125 0.171875 0.25 0.28125q0.171875 0.09375 0.484375 0.09375q0.234375 0 0.609375 -0.0625z" fill-rule="nonzero"/></g></svg>